<svg width="965" height="1245" viewBox="0 0 965 1245" fill="none" xmlns="http://www.w3.org/2000/svg">
<g style="mix-blend-mode:hard-light" filter="url(#filter0_f_196_3440)">
<ellipse rx="207.878" ry="63.3605" transform="matrix(-0.109466 -0.993991 -0.995012 0.0997545 482.785 622.447)" fill="#008DC8" fill-opacity="0.91"/>
</g>
<g style="mix-blend-mode:hard-light" filter="url(#filter1_f_196_3440)">
<ellipse rx="207.878" ry="63.3605" transform="matrix(-0.109466 -0.993991 -0.995012 0.0997545 482.785 622.447)" fill="#008DC8" fill-opacity="0.91"/>
</g>
<g style="mix-blend-mode:color-dodge">
<path d="M443.531 842.639L456.951 806.288L440.775 829.958M482.405 777.464L454.288 827.306L514.24 743.372L482.405 777.464ZM482.405 777.464L456.961 806.286M482.405 777.464L504.866 732.505M456.961 806.286L504.866 732.505M456.961 806.286L475.971 766.364M456.961 806.286L440.775 829.959M504.866 732.505L475.971 766.364M475.971 766.364L440.775 829.959M475.971 766.364L454.684 793.52M475.971 766.364L480.3 735.543M433.909 843.228L440.775 829.958M433.909 843.228L454.684 793.52M433.909 843.228L434.49 816.345M440.775 829.958L454.684 793.52M440.775 829.958L433.898 843.23M454.684 793.52L440.775 829.959M454.684 793.52L434.49 816.345M454.684 793.52L480.3 735.543M454.684 793.52L465.539 758.999M416.604 832.122L434.491 816.347L451.347 779.483M416.604 832.122L451.347 779.483M416.604 832.122L428.644 799.612M434.49 816.345L416.604 832.121L428.644 799.612M434.49 816.345L454.684 793.521L465.539 758.999M434.49 816.345L465.539 758.999M434.49 816.345L451.347 779.483M451.347 779.483L465.539 758.999M451.347 779.483L428.644 799.612M451.347 779.483L459.806 743.219M465.539 758.999L480.3 735.543M465.539 758.999L451.347 779.483M465.539 758.999L460.775 732.728M465.539 758.999L464.546 716.842M480.3 735.543L507.001 701.927M480.3 735.543L484.587 687.338M480.3 735.543L464.546 716.842M451.347 779.483L460.775 732.728M451.347 779.483L459.805 743.218L462.653 738.19M460.775 732.728L462.653 738.19M460.775 732.728L464.546 716.842M460.775 732.728L441.562 712.635M462.653 738.19L459.805 743.217M428.644 799.612L402.767 820.411L380.849 841.901M428.644 799.612L459.806 743.219M428.644 799.612L436.428 765.841L459.806 743.219M402.767 820.41L428.644 799.611L436.428 765.839M402.767 820.41L436.428 765.839M402.767 820.41L401.925 790.792L436.428 765.839M436.428 765.839L459.805 743.217M436.428 765.839L438.827 720.914M436.428 765.839L401.925 790.792M436.428 765.839L420.487 736.789M459.805 743.217L438.827 720.914M459.805 743.217L441.562 712.635M438.827 720.914L442.423 714.799L441.562 712.635M438.827 720.914L420.487 736.789M438.827 720.914L420.487 736.788M438.827 720.914L402.862 701.408M482.405 777.463L514.239 743.371L543.316 691.337M482.405 777.463L543.316 691.337M482.405 777.463L504.866 732.504L543.316 691.337M543.316 691.339L504.866 732.506M543.316 691.339L546.428 658.945M543.316 691.339L582.7 650.211M543.316 691.339L588.84 615.349M543.316 691.339L514.24 743.373L582.7 650.211M504.866 732.506L546.428 658.945M504.866 732.506L475.971 766.365M504.866 732.506L507.002 701.929M504.866 732.506L507.001 701.927M546.428 658.945L588.84 615.349M546.428 658.945L507.001 701.927M546.428 658.945L520.552 646.391M582.7 650.211L588.84 615.349M588.84 615.348L546.428 658.944M588.84 615.348L561.172 603.911M588.84 615.348L614.081 587.007M588.84 615.348L582.7 650.21L614.081 587.007M546.428 658.944L561.172 603.911M546.428 658.944L520.552 646.391M561.172 603.911L590.461 568.734M561.172 603.911L548.161 560.113M561.172 603.911L520.552 646.391M561.172 603.911L513.43 600.796M614.081 587.007L603.018 545.651M614.081 587.007L590.461 568.734M588.841 615.35L614.081 587.009L590.462 568.737M588.841 615.35L590.462 568.737M588.841 615.35L561.172 603.913L590.462 568.737M590.461 568.734L548.161 560.113M590.461 568.734L603.018 545.651M590.461 568.734L569.485 529.227M548.161 560.113L569.485 529.227M548.161 560.113L513.43 600.796M548.161 560.113L501.64 551.478M603.018 545.651L569.485 529.227M603.018 545.651L573.363 511.006M569.485 529.227L573.363 511.006M569.485 529.227L548.161 560.114M569.485 529.227L527.789 516.541M573.363 511.006L535.954 479.502M573.363 511.006L539.324 492.438M475.971 766.365L507.002 701.929M475.971 766.365L480.301 735.544L507.002 701.929M507.001 701.927L484.587 687.338M507.001 701.927L520.552 646.391M484.587 687.338L520.552 646.391M484.587 687.338L464.543 716.83M484.587 687.338L443.853 682.483M484.587 687.338L464.546 716.842M548.161 560.114L527.789 516.541M548.161 560.114L501.64 551.478M527.789 516.541L501.64 551.478M527.789 516.541L539.324 492.438M527.789 516.541L504.365 473.712M527.789 516.541L488.633 500.416M501.64 551.478L465.392 593.895M501.64 551.478L461.106 536.118M501.64 551.478L513.43 600.796M520.552 646.392L484.588 687.339M520.552 646.392L473.581 645.421M520.552 646.392L561.172 603.912L513.43 600.797M520.552 646.392L513.43 600.797M484.588 687.339L473.581 645.421M484.588 687.339L443.853 682.485L473.581 645.421M473.581 645.421L513.43 600.797M513.43 600.796L473.581 645.42M513.43 600.796L465.394 593.905M513.43 600.796L501.639 551.477M473.581 645.42L465.394 593.905M473.581 645.42L427.843 637.479M465.394 593.905L501.639 551.477M465.394 593.905L427.843 637.479M465.392 593.895L461.106 536.118M465.392 593.895L427.84 637.47L426.823 576.987M465.392 593.895L426.823 576.987M461.106 536.118L488.633 500.416M461.106 536.118L458.477 476.665M461.106 536.118L426.823 576.987M461.106 536.118L432.585 510.286M501.639 551.477L527.788 516.539L488.632 500.415M501.639 551.477L488.632 500.415M501.639 551.477L461.105 536.116L488.632 500.415M569.485 529.229L573.363 511.007L539.324 492.439M569.485 529.229L539.324 492.439M569.485 529.229L527.789 516.541L539.324 492.439M539.324 492.439L535.955 479.504L507.539 456.842M539.324 492.439L507.539 456.842M539.324 492.439L504.366 473.713L507.539 456.842M539.324 492.438L504.365 473.712M539.324 492.438L535.954 479.502M504.365 473.712L488.633 500.416M504.365 473.712L475.412 450.188M535.954 479.502L501.621 447.619M535.954 479.502L507.538 456.84M504.366 473.714L507.539 456.843L482.146 432.177M504.366 473.714L482.146 432.177M504.366 473.714L475.413 450.19L482.146 432.177M507.538 456.84L501.621 447.619M507.538 456.84L481.651 420.941M507.538 456.84L482.145 432.174M501.621 447.619L481.651 420.941M481.651 420.941L482.145 432.174M481.651 420.941L465.375 392.487M482.145 432.174L465.375 392.487M482.145 432.174L475.412 450.187M482.145 432.174L462.972 403.375M465.375 392.487L462.972 403.375M488.633 500.416L458.477 476.665M488.633 500.416L475.412 450.188M458.477 476.665L475.412 450.188M458.477 476.665L475.412 450.187M458.477 476.665L455.209 420.16M458.477 476.665L432.585 510.286M458.477 476.665L439.594 444.044M475.412 450.187L455.209 420.16M475.412 450.187L462.972 403.375M455.209 420.16L462.972 403.375M455.209 420.16L448.997 371.238M455.209 420.16L439.594 444.044M455.209 420.16L442.259 384.908M462.972 403.375L448.997 371.238M448.997 371.238L442.259 384.908M460.775 732.73L464.546 716.843L433.74 705.434M460.775 732.73L433.74 705.434M460.775 732.73L441.562 712.637M433.74 705.434L435.291 709.361L441.562 712.637M464.543 716.83L443.853 682.483M464.543 716.83L433.729 705.434M443.853 682.483L433.729 705.434M443.853 682.483L402.007 672.879M433.729 705.434L402.007 672.879M433.729 705.434L435.29 709.358L441.562 712.635M433.729 705.434L402.415 688.739M433.729 705.434L402.415 688.74L399.206 683.399L402.007 672.879M402.007 672.879L427.843 637.48M402.007 672.879L395.045 616.21M402.007 672.879L443.853 682.484M402.007 672.879L379.717 643.671M443.853 682.484L473.581 645.42L427.843 637.48M443.853 682.484L427.843 637.48M427.843 637.48L395.045 616.21M395.045 616.21L426.823 576.988L403.272 546.776M395.045 616.21L403.272 546.776M395.045 616.21L381.469 578.274M395.045 616.21L379.717 643.671M426.823 576.987L395.044 616.209M426.823 576.987L427.843 637.479M426.823 576.987L432.585 510.286M426.823 576.987L403.269 546.765L432.585 510.286M395.044 616.209L427.843 637.479M395.044 616.209L379.717 643.671M395.044 616.209L381.468 578.273M441.562 712.635L402.415 688.739M441.562 712.635L407.079 694.605M441.562 712.637L442.423 714.801L438.828 720.916M441.562 712.637L407.079 694.608M438.828 720.916L407.079 694.608M438.828 720.916L402.863 701.41L407.079 694.608M407.079 694.608L402.863 701.409M407.079 694.608L369.999 670.91M402.415 688.739L407.079 694.605M402.415 688.739L373.651 661.017M402.415 688.739L399.206 683.398L402.006 672.878L379.717 643.67M402.415 688.739L379.717 643.67M407.079 694.605L373.651 661.017M407.079 694.605L369.999 670.909M403.272 546.776L381.469 578.274M381.469 578.274L365.898 603.401M381.469 578.274L374.713 533.318M373.651 661.017L379.717 643.67M373.651 661.017L369.999 670.909M373.652 661.018L379.717 643.672L365.898 603.401M373.652 661.018L365.898 603.401M373.652 661.018L369.999 670.91M373.652 661.018L350.428 624.003M373.652 661.018L350.428 624.002M365.898 603.401L374.713 533.318M365.898 603.401L350.428 624.003M365.898 603.401L351.706 560.964M365.898 603.401L350.428 624.002M374.713 533.318L396.416 503.257L390.378 459.162M374.713 533.318L390.378 459.162M374.713 533.318L351.706 560.963L365.898 603.4M374.713 533.318L365.898 603.4M374.713 533.318L363.217 491.001M379.717 643.671L381.468 578.273M379.717 643.671L365.898 603.4M381.468 578.273L365.898 603.4M432.585 510.286L439.594 444.044M432.585 510.286L417.885 473.242M403.27 546.767L432.585 510.287L417.886 473.243M403.27 546.767L417.886 473.243M403.27 546.767L396.416 503.258L417.886 473.243M439.594 444.044L417.885 473.242M439.594 444.044L430.037 404.307M417.885 473.242L430.037 404.307M417.885 473.242L396.416 503.256M417.885 473.242L413.719 428.358M417.885 473.242L413.719 428.359M430.037 404.307L442.259 384.908M430.037 404.307L430.884 348.697M430.037 404.307L413.719 428.359M430.037 404.307L422.568 363.319M430.037 404.307L422.568 363.317L430.884 348.697M439.595 444.045L455.21 420.162L442.259 384.91M439.595 444.045L442.259 384.91M439.595 444.045L430.037 404.308L442.259 384.91M442.259 384.908L430.884 348.697M381.468 578.272L403.269 546.764L396.416 503.256M381.468 578.272L396.416 503.256M381.468 578.272L374.713 533.317M396.416 503.256L374.713 533.317M396.416 503.256L413.719 428.358M396.416 503.256L390.378 459.161L413.719 428.358M390.378 459.162L413.719 428.359M390.378 459.162L403.185 389.289M390.378 459.162L363.217 491.001M390.378 459.162L376.353 421.123M374.713 533.317L351.706 560.961M374.713 533.317L363.217 491.001M413.719 428.359L403.185 389.289M413.719 428.359L422.568 363.319M403.185 389.289L422.568 363.319M403.185 389.289L403.436 332.043M403.185 389.289L376.353 421.123M403.185 389.289L382.532 358.317M422.568 363.319L403.436 332.043M403.436 332.043L382.532 358.317M380.848 841.899L402.766 820.409L401.924 790.791M380.848 841.899L401.924 790.791M380.848 841.899L372.777 813.716L401.924 790.791M401.925 790.792L372.777 813.718M401.925 790.792L389.986 760.536M401.925 790.792L420.487 736.789M372.777 813.718L389.986 760.536M372.777 813.718L358.721 785.036M389.986 760.536L420.487 736.789M389.986 760.536L387.963 713.482M389.986 760.536L364.627 731.993M389.986 760.536L358.721 785.036M420.487 736.789L387.963 713.482M387.963 713.482L364.627 731.993M387.963 713.482L402.863 701.409M387.963 713.482L363.941 678.271M387.963 713.482L352.09 688.578M364.627 731.993L358.721 785.036M364.627 731.993L352.09 688.578M420.487 736.788L402.862 701.408M420.487 736.788L387.963 713.481L402.862 701.408M402.863 701.409L363.941 678.271M402.863 701.409L369.999 670.91M363.941 678.271L369.999 670.91M363.941 678.271L369.999 670.909M363.941 678.271L337.544 638.93M363.941 678.271L352.09 688.578M363.941 678.271L330.021 648.196L352.09 688.578M363.941 678.271L330.021 648.195L337.544 638.93M369.999 670.91L350.428 624.003M369.999 670.91L337.544 638.932L350.428 624.003M369.999 670.909L337.544 638.93M337.544 638.93L350.428 624.002M337.544 638.93L330.789 583.435L350.428 624.002M350.428 624.003L351.706 560.964M350.428 624.003L330.79 583.436L351.706 560.964M351.706 560.961L330.789 583.433M351.706 560.961L336.526 519.542M351.706 560.961L363.217 491.001M330.789 583.433L336.526 519.542M330.789 583.433L313.889 542.28L336.526 519.542M336.526 519.542L363.217 491.001M336.527 519.544L363.217 491.002L347.257 452.912M336.527 519.544L347.257 452.912M336.527 519.544L313.89 542.283M336.527 519.544L320.376 480.53M347.257 452.912L376.353 421.123M347.257 452.912L355.499 389.145M347.257 452.912L320.376 480.53M347.257 452.912L327.745 418.828M363.217 491.003L390.378 459.164L376.353 421.124M363.217 491.003L376.353 421.124M363.217 491.003L347.257 452.913L376.353 421.124M376.353 421.123L355.499 389.145M355.499 389.145L382.532 358.317M355.499 389.145L353.771 333.871M355.499 389.145L327.745 418.828M355.499 389.145L329.615 361.424M376.352 421.122L403.185 389.288L382.532 358.316M376.352 421.122L382.532 358.316M376.352 421.122L355.499 389.143L382.532 358.316M382.532 358.317L353.771 333.871M353.771 333.871L329.615 361.424M313.89 542.283L320.376 480.53M313.89 542.283L299.536 501.687M320.376 480.53L299.536 501.687M320.376 480.53L303.973 443.474M320.376 480.53L327.745 418.828M299.536 501.687L303.973 443.474M299.536 501.687L288.227 461.033L303.973 443.474M303.973 443.474L327.745 418.828M303.973 443.474L306.28 386.733M303.973 443.474L288.698 406.157L306.28 386.733M327.745 418.828L306.28 386.733M327.745 418.828L329.615 361.424M306.28 386.733L329.615 361.424M306.279 386.733L329.615 361.423L301.202 334.363M306.279 386.733L301.202 334.363M306.279 386.733L288.698 406.156M306.279 386.733L285.141 352.82M301.202 334.363L285.141 352.82M288.227 461.031L303.973 443.472L288.698 406.156M288.227 461.031L288.698 406.156M288.227 461.031L279.087 418.22M288.698 406.156L279.087 418.22M288.698 406.156L274.859 364.92M288.698 406.156L285.141 352.82M279.087 418.22L274.859 364.92M274.859 364.92L285.141 352.82M481.65 420.939L481.133 411.819L501.62 447.618L481.65 420.939Z" stroke="white" stroke-width="0.25" stroke-linejoin="round"/>
</g>
<g style="mix-blend-mode:color-dodge">
<path d="M443.531 842.639L456.951 806.288L440.775 829.958M482.405 777.464L454.288 827.306L514.24 743.372L482.405 777.464ZM482.405 777.464L456.961 806.286M482.405 777.464L504.866 732.505M456.961 806.286L504.866 732.505M456.961 806.286L475.971 766.364M456.961 806.286L440.775 829.959M504.866 732.505L475.971 766.364M475.971 766.364L440.775 829.959M475.971 766.364L454.684 793.52M475.971 766.364L480.3 735.543M433.909 843.228L440.775 829.958M433.909 843.228L454.684 793.52M433.909 843.228L434.49 816.345M440.775 829.958L454.684 793.52M440.775 829.958L433.898 843.23M454.684 793.52L440.775 829.959M454.684 793.52L434.49 816.345M454.684 793.52L480.3 735.543M454.684 793.52L465.539 758.999M416.604 832.122L434.491 816.347L451.347 779.483M416.604 832.122L451.347 779.483M416.604 832.122L428.644 799.612M434.49 816.345L416.604 832.121L428.644 799.612M434.49 816.345L454.684 793.521L465.539 758.999M434.49 816.345L465.539 758.999M434.49 816.345L451.347 779.483M451.347 779.483L465.539 758.999M451.347 779.483L428.644 799.612M451.347 779.483L459.806 743.219M465.539 758.999L480.3 735.543M465.539 758.999L451.347 779.483M465.539 758.999L460.775 732.728M465.539 758.999L464.546 716.842M480.3 735.543L507.001 701.927M480.3 735.543L484.587 687.338M480.3 735.543L464.546 716.842M451.347 779.483L460.775 732.728M451.347 779.483L459.805 743.218L462.653 738.19M460.775 732.728L462.653 738.19M460.775 732.728L464.546 716.842M460.775 732.728L441.562 712.635M462.653 738.19L459.805 743.217M428.644 799.612L402.767 820.411L380.849 841.901M428.644 799.612L459.806 743.219M428.644 799.612L436.428 765.841L459.806 743.219M402.767 820.41L428.644 799.611L436.428 765.839M402.767 820.41L436.428 765.839M402.767 820.41L401.925 790.792L436.428 765.839M436.428 765.839L459.805 743.217M436.428 765.839L438.827 720.914M436.428 765.839L401.925 790.792M436.428 765.839L420.487 736.789M459.805 743.217L438.827 720.914M459.805 743.217L441.562 712.635M438.827 720.914L442.423 714.799L441.562 712.635M438.827 720.914L420.487 736.789M438.827 720.914L420.487 736.788M438.827 720.914L402.862 701.408M482.405 777.463L514.239 743.371L543.316 691.337M482.405 777.463L543.316 691.337M482.405 777.463L504.866 732.504L543.316 691.337M543.316 691.339L504.866 732.506M543.316 691.339L546.428 658.945M543.316 691.339L582.7 650.211M543.316 691.339L588.84 615.349M543.316 691.339L514.24 743.373L582.7 650.211M504.866 732.506L546.428 658.945M504.866 732.506L475.971 766.365M504.866 732.506L507.002 701.929M504.866 732.506L507.001 701.927M546.428 658.945L588.84 615.349M546.428 658.945L507.001 701.927M546.428 658.945L520.552 646.391M582.7 650.211L588.84 615.349M588.84 615.348L546.428 658.944M588.84 615.348L561.172 603.911M588.84 615.348L614.081 587.007M588.84 615.348L582.7 650.21L614.081 587.007M546.428 658.944L561.172 603.911M546.428 658.944L520.552 646.391M561.172 603.911L590.461 568.734M561.172 603.911L548.161 560.113M561.172 603.911L520.552 646.391M561.172 603.911L513.43 600.796M614.081 587.007L603.018 545.651M614.081 587.007L590.461 568.734M588.841 615.35L614.081 587.009L590.462 568.737M588.841 615.35L590.462 568.737M588.841 615.35L561.172 603.913L590.462 568.737M590.461 568.734L548.161 560.113M590.461 568.734L603.018 545.651M590.461 568.734L569.485 529.227M548.161 560.113L569.485 529.227M548.161 560.113L513.43 600.796M548.161 560.113L501.64 551.478M603.018 545.651L569.485 529.227M603.018 545.651L573.363 511.006M569.485 529.227L573.363 511.006M569.485 529.227L548.161 560.114M569.485 529.227L527.789 516.541M573.363 511.006L535.954 479.502M573.363 511.006L539.324 492.438M475.971 766.365L507.002 701.929M475.971 766.365L480.301 735.544L507.002 701.929M507.001 701.927L484.587 687.338M507.001 701.927L520.552 646.391M484.587 687.338L520.552 646.391M484.587 687.338L464.543 716.83M484.587 687.338L443.853 682.483M484.587 687.338L464.546 716.842M548.161 560.114L527.789 516.541M548.161 560.114L501.64 551.478M527.789 516.541L501.64 551.478M527.789 516.541L539.324 492.438M527.789 516.541L504.365 473.712M527.789 516.541L488.633 500.416M501.64 551.478L465.392 593.895M501.64 551.478L461.106 536.118M501.64 551.478L513.43 600.796M520.552 646.392L484.588 687.339M520.552 646.392L473.581 645.421M520.552 646.392L561.172 603.912L513.43 600.797M520.552 646.392L513.43 600.797M484.588 687.339L473.581 645.421M484.588 687.339L443.853 682.485L473.581 645.421M473.581 645.421L513.43 600.797M513.43 600.796L473.581 645.42M513.43 600.796L465.394 593.905M513.43 600.796L501.639 551.477M473.581 645.42L465.394 593.905M473.581 645.42L427.843 637.479M465.394 593.905L501.639 551.477M465.394 593.905L427.843 637.479M465.392 593.895L461.106 536.118M465.392 593.895L427.84 637.47L426.823 576.987M465.392 593.895L426.823 576.987M461.106 536.118L488.633 500.416M461.106 536.118L458.477 476.665M461.106 536.118L426.823 576.987M461.106 536.118L432.585 510.286M501.639 551.477L527.788 516.539L488.632 500.415M501.639 551.477L488.632 500.415M501.639 551.477L461.105 536.116L488.632 500.415M569.485 529.229L573.363 511.007L539.324 492.439M569.485 529.229L539.324 492.439M569.485 529.229L527.789 516.541L539.324 492.439M539.324 492.439L535.955 479.504L507.539 456.842M539.324 492.439L507.539 456.842M539.324 492.439L504.366 473.713L507.539 456.842M539.324 492.438L504.365 473.712M539.324 492.438L535.954 479.502M504.365 473.712L488.633 500.416M504.365 473.712L475.412 450.188M535.954 479.502L501.621 447.619M535.954 479.502L507.538 456.84M504.366 473.714L507.539 456.843L482.146 432.177M504.366 473.714L482.146 432.177M504.366 473.714L475.413 450.19L482.146 432.177M507.538 456.84L501.621 447.619M507.538 456.84L481.651 420.941M507.538 456.84L482.145 432.174M501.621 447.619L481.651 420.941M481.651 420.941L482.145 432.174M481.651 420.941L465.375 392.487M482.145 432.174L465.375 392.487M482.145 432.174L475.412 450.187M482.145 432.174L462.972 403.375M465.375 392.487L462.972 403.375M488.633 500.416L458.477 476.665M488.633 500.416L475.412 450.188M458.477 476.665L475.412 450.188M458.477 476.665L475.412 450.187M458.477 476.665L455.209 420.16M458.477 476.665L432.585 510.286M458.477 476.665L439.594 444.044M475.412 450.187L455.209 420.16M475.412 450.187L462.972 403.375M455.209 420.16L462.972 403.375M455.209 420.16L448.997 371.238M455.209 420.16L439.594 444.044M455.209 420.16L442.259 384.908M462.972 403.375L448.997 371.238M448.997 371.238L442.259 384.908M460.775 732.73L464.546 716.843L433.74 705.434M460.775 732.73L433.74 705.434M460.775 732.73L441.562 712.637M433.74 705.434L435.291 709.361L441.562 712.637M464.543 716.83L443.853 682.483M464.543 716.83L433.729 705.434M443.853 682.483L433.729 705.434M443.853 682.483L402.007 672.879M433.729 705.434L402.007 672.879M433.729 705.434L435.29 709.358L441.562 712.635M433.729 705.434L402.415 688.739M433.729 705.434L402.415 688.74L399.206 683.399L402.007 672.879M402.007 672.879L427.843 637.48M402.007 672.879L395.045 616.21M402.007 672.879L443.853 682.484M402.007 672.879L379.717 643.671M443.853 682.484L473.581 645.42L427.843 637.48M443.853 682.484L427.843 637.48M427.843 637.48L395.045 616.21M395.045 616.21L426.823 576.988L403.272 546.776M395.045 616.21L403.272 546.776M395.045 616.21L381.469 578.274M395.045 616.21L379.717 643.671M426.823 576.987L395.044 616.209M426.823 576.987L427.843 637.479M426.823 576.987L432.585 510.286M426.823 576.987L403.269 546.765L432.585 510.286M395.044 616.209L427.843 637.479M395.044 616.209L379.717 643.671M395.044 616.209L381.468 578.273M441.562 712.635L402.415 688.739M441.562 712.635L407.079 694.605M441.562 712.637L442.423 714.801L438.828 720.916M441.562 712.637L407.079 694.608M438.828 720.916L407.079 694.608M438.828 720.916L402.863 701.41L407.079 694.608M407.079 694.608L402.863 701.409M407.079 694.608L369.999 670.91M402.415 688.739L407.079 694.605M402.415 688.739L373.651 661.017M402.415 688.739L399.206 683.398L402.006 672.878L379.717 643.67M402.415 688.739L379.717 643.67M407.079 694.605L373.651 661.017M407.079 694.605L369.999 670.909M403.272 546.776L381.469 578.274M381.469 578.274L365.898 603.401M381.469 578.274L374.713 533.318M373.651 661.017L379.717 643.67M373.651 661.017L369.999 670.909M373.652 661.018L379.717 643.672L365.898 603.401M373.652 661.018L365.898 603.401M373.652 661.018L369.999 670.91M373.652 661.018L350.428 624.003M373.652 661.018L350.428 624.002M365.898 603.401L374.713 533.318M365.898 603.401L350.428 624.003M365.898 603.401L351.706 560.964M365.898 603.401L350.428 624.002M374.713 533.318L396.416 503.257L390.378 459.162M374.713 533.318L390.378 459.162M374.713 533.318L351.706 560.963L365.898 603.4M374.713 533.318L365.898 603.4M374.713 533.318L363.217 491.001M379.717 643.671L381.468 578.273M379.717 643.671L365.898 603.4M381.468 578.273L365.898 603.4M432.585 510.286L439.594 444.044M432.585 510.286L417.885 473.242M403.27 546.767L432.585 510.287L417.886 473.243M403.27 546.767L417.886 473.243M403.27 546.767L396.416 503.258L417.886 473.243M439.594 444.044L417.885 473.242M439.594 444.044L430.037 404.307M417.885 473.242L430.037 404.307M417.885 473.242L396.416 503.256M417.885 473.242L413.719 428.358M417.885 473.242L413.719 428.359M430.037 404.307L442.259 384.908M430.037 404.307L430.884 348.697M430.037 404.307L413.719 428.359M430.037 404.307L422.568 363.319M430.037 404.307L422.568 363.317L430.884 348.697M439.595 444.045L455.21 420.162L442.259 384.91M439.595 444.045L442.259 384.91M439.595 444.045L430.037 404.308L442.259 384.91M442.259 384.908L430.884 348.697M381.468 578.272L403.269 546.764L396.416 503.256M381.468 578.272L396.416 503.256M381.468 578.272L374.713 533.317M396.416 503.256L374.713 533.317M396.416 503.256L413.719 428.358M396.416 503.256L390.378 459.161L413.719 428.358M390.378 459.162L413.719 428.359M390.378 459.162L403.185 389.289M390.378 459.162L363.217 491.001M390.378 459.162L376.353 421.123M374.713 533.317L351.706 560.961M374.713 533.317L363.217 491.001M413.719 428.359L403.185 389.289M413.719 428.359L422.568 363.319M403.185 389.289L422.568 363.319M403.185 389.289L403.436 332.043M403.185 389.289L376.353 421.123M403.185 389.289L382.532 358.317M422.568 363.319L403.436 332.043M403.436 332.043L382.532 358.317M380.848 841.899L402.766 820.409L401.924 790.791M380.848 841.899L401.924 790.791M380.848 841.899L372.777 813.716L401.924 790.791M401.925 790.792L372.777 813.718M401.925 790.792L389.986 760.536M401.925 790.792L420.487 736.789M372.777 813.718L389.986 760.536M372.777 813.718L358.721 785.036M389.986 760.536L420.487 736.789M389.986 760.536L387.963 713.482M389.986 760.536L364.627 731.993M389.986 760.536L358.721 785.036M420.487 736.789L387.963 713.482M387.963 713.482L364.627 731.993M387.963 713.482L402.863 701.409M387.963 713.482L363.941 678.271M387.963 713.482L352.09 688.578M364.627 731.993L358.721 785.036M364.627 731.993L352.09 688.578M420.487 736.788L402.862 701.408M420.487 736.788L387.963 713.481L402.862 701.408M402.863 701.409L363.941 678.271M402.863 701.409L369.999 670.91M363.941 678.271L369.999 670.91M363.941 678.271L369.999 670.909M363.941 678.271L337.544 638.93M363.941 678.271L352.09 688.578M363.941 678.271L330.021 648.196L352.09 688.578M363.941 678.271L330.021 648.195L337.544 638.93M369.999 670.91L350.428 624.003M369.999 670.91L337.544 638.932L350.428 624.003M369.999 670.909L337.544 638.93M337.544 638.93L350.428 624.002M337.544 638.93L330.789 583.435L350.428 624.002M350.428 624.003L351.706 560.964M350.428 624.003L330.79 583.436L351.706 560.964M351.706 560.961L330.789 583.433M351.706 560.961L336.526 519.542M351.706 560.961L363.217 491.001M330.789 583.433L336.526 519.542M330.789 583.433L313.889 542.28L336.526 519.542M336.526 519.542L363.217 491.001M336.527 519.544L363.217 491.002L347.257 452.912M336.527 519.544L347.257 452.912M336.527 519.544L313.89 542.283M336.527 519.544L320.376 480.53M347.257 452.912L376.353 421.123M347.257 452.912L355.499 389.145M347.257 452.912L320.376 480.53M347.257 452.912L327.745 418.828M363.217 491.003L390.378 459.164L376.353 421.124M363.217 491.003L376.353 421.124M363.217 491.003L347.257 452.913L376.353 421.124M376.353 421.123L355.499 389.145M355.499 389.145L382.532 358.317M355.499 389.145L353.771 333.871M355.499 389.145L327.745 418.828M355.499 389.145L329.615 361.424M376.352 421.122L403.185 389.288L382.532 358.316M376.352 421.122L382.532 358.316M376.352 421.122L355.499 389.143L382.532 358.316M382.532 358.317L353.771 333.871M353.771 333.871L329.615 361.424M313.89 542.283L320.376 480.53M313.89 542.283L299.536 501.687M320.376 480.53L299.536 501.687M320.376 480.53L303.973 443.474M320.376 480.53L327.745 418.828M299.536 501.687L303.973 443.474M299.536 501.687L288.227 461.033L303.973 443.474M303.973 443.474L327.745 418.828M303.973 443.474L306.28 386.733M303.973 443.474L288.698 406.157L306.28 386.733M327.745 418.828L306.28 386.733M327.745 418.828L329.615 361.424M306.28 386.733L329.615 361.424M306.279 386.733L329.615 361.423L301.202 334.363M306.279 386.733L301.202 334.363M306.279 386.733L288.698 406.156M306.279 386.733L285.141 352.82M301.202 334.363L285.141 352.82M288.227 461.031L303.973 443.472L288.698 406.156M288.227 461.031L288.698 406.156M288.227 461.031L279.087 418.22M288.698 406.156L279.087 418.22M288.698 406.156L274.859 364.92M288.698 406.156L285.141 352.82M279.087 418.22L274.859 364.92M274.859 364.92L285.141 352.82M481.65 420.939L481.133 411.819L501.62 447.618L481.65 420.939Z" stroke="white" stroke-width="0.25" stroke-linejoin="round"/>
</g>
<defs>
<filter id="filter0_f_196_3440" x="0.741211" y="0.719482" width="964.087" height="1243.45" filterUnits="userSpaceOnUse" color-interpolation-filters="sRGB">
<feFlood flood-opacity="0" result="BackgroundImageFix"/>
<feBlend mode="normal" in="SourceGraphic" in2="BackgroundImageFix" result="shape"/>
<feGaussianBlur stdDeviation="207.5" result="effect1_foregroundBlur_196_3440"/>
</filter>
<filter id="filter1_f_196_3440" x="0.741211" y="0.719482" width="964.087" height="1243.45" filterUnits="userSpaceOnUse" color-interpolation-filters="sRGB">
<feFlood flood-opacity="0" result="BackgroundImageFix"/>
<feBlend mode="normal" in="SourceGraphic" in2="BackgroundImageFix" result="shape"/>
<feGaussianBlur stdDeviation="207.5" result="effect1_foregroundBlur_196_3440"/>
</filter>
</defs>
</svg>
