<svg width="658" height="91" viewBox="0 0 658 91" fill="none" xmlns="http://www.w3.org/2000/svg">
<g style="mix-blend-mode:screen" filter="url(#filter0_f_481_22125)">
<path d="M20.912 57.728V45.632H35.024C37.968 45.632 40.368 44.672 42.224 42.752C44.144 40.832 45.104 38.304 45.104 35.168C45.104 33.12 44.624 31.328 43.664 29.792C42.704 28.192 41.392 26.944 39.728 26.048C38.064 25.152 36.144 24.736 33.968 24.8H20.912V12.8L34.256 12.704C38.992 12.64 43.184 13.6 46.832 15.584C50.48 17.504 53.328 20.16 55.376 23.552C57.424 26.88 58.448 30.752 58.448 35.168C58.448 39.52 57.456 43.392 55.472 46.784C53.488 50.176 50.768 52.864 47.312 54.848C43.856 56.768 39.856 57.728 35.312 57.728H20.912ZM9.296 80V12.8H22.448V80H9.296ZM65.3158 80V12.8H77.9878V80H65.3158ZM117.741 80L117.261 70.304V55.712C117.261 52.832 116.941 50.4 116.301 48.416C115.661 46.368 114.669 44.832 113.325 43.808C112.045 42.72 110.317 42.176 108.141 42.176C106.221 42.176 104.493 42.592 102.957 43.424C101.421 44.256 100.109 45.6 99.0208 47.456L87.5008 43.52C88.3968 41.472 89.7088 39.488 91.4368 37.568C93.1648 35.584 95.4048 33.984 98.1568 32.768C100.973 31.488 104.397 30.848 108.429 30.848C113.229 30.848 117.229 31.712 120.429 33.44C123.693 35.168 126.125 37.728 127.725 41.12C129.325 44.448 130.093 48.544 130.029 53.408L129.741 80H117.741ZM104.493 81.152C98.7328 81.152 94.2528 79.872 91.0528 77.312C87.9168 74.752 86.3488 71.136 86.3488 66.464C86.3488 61.344 88.0448 57.504 91.4368 54.944C94.8928 52.32 99.7248 51.008 105.933 51.008H118.125V60.416H110.349C106.189 60.416 103.309 60.928 101.709 61.952C100.109 62.912 99.3088 64.288 99.3088 66.08C99.3088 67.488 99.9488 68.608 101.229 69.44C102.509 70.208 104.301 70.592 106.605 70.592C108.653 70.592 110.477 70.112 112.077 69.152C113.677 68.128 114.925 66.848 115.821 65.312C116.781 63.712 117.261 62.08 117.261 60.416H120.621C120.621 66.944 119.341 72.032 116.781 75.68C114.285 79.328 110.189 81.152 104.493 81.152ZM159.904 81.152C154.592 81.152 150.56 79.84 147.808 77.216C145.12 74.592 143.776 70.848 143.776 65.984V17.024H156.448V63.2C156.448 65.248 156.896 66.816 157.792 67.904C158.688 68.928 160 69.44 161.728 69.44C162.368 69.44 163.072 69.312 163.84 69.056C164.608 68.736 165.408 68.288 166.24 67.712L170.656 77.216C169.12 78.368 167.392 79.296 165.472 80C163.616 80.768 161.76 81.152 159.904 81.152ZM136 42.752V32H168.448V42.752H136ZM179.521 80V32H192.193V80H179.521ZM185.857 24.224C183.937 24.224 182.241 23.52 180.769 22.112C179.297 20.64 178.561 18.912 178.561 16.928C178.561 14.944 179.297 13.248 180.769 11.84C182.241 10.368 183.937 9.632 185.857 9.632C187.841 9.632 189.537 10.368 190.945 11.84C192.417 13.248 193.153 14.944 193.153 16.928C193.153 18.912 192.417 20.64 190.945 22.112C189.537 23.52 187.841 24.224 185.857 24.224ZM203.878 80V32H215.782L216.55 40.832V80H203.878ZM235.654 80V55.424L248.326 52.544V80H235.654ZM235.654 55.424C235.654 52.16 235.27 49.632 234.502 47.84C233.798 46.048 232.774 44.768 231.43 44C230.086 43.168 228.518 42.752 226.726 42.752C223.462 42.688 220.934 43.68 219.142 45.728C217.414 47.776 216.55 50.816 216.55 54.848H212.326C212.326 49.728 213.062 45.408 214.534 41.888C216.07 38.304 218.182 35.584 220.87 33.728C223.558 31.808 226.726 30.848 230.374 30.848C236.198 30.848 240.646 32.64 243.718 36.224C246.854 39.744 248.39 45.184 248.326 52.544L235.654 55.424ZM290.121 80L289.353 71.168V32H302.025V80H290.121ZM257.577 59.456V32H270.249V56.576L257.577 59.456ZM270.249 56.576C270.249 59.776 270.601 62.304 271.305 64.16C272.073 65.952 273.129 67.264 274.473 68.096C275.881 68.864 277.449 69.248 279.177 69.248C282.505 69.312 285.033 68.32 286.761 66.272C288.489 64.16 289.353 61.12 289.353 57.152H293.673C293.673 62.272 292.905 66.624 291.369 70.208C289.897 73.728 287.785 76.448 285.033 78.368C282.345 80.224 279.177 81.152 275.529 81.152C269.769 81.152 265.321 79.392 262.185 75.872C259.113 72.288 257.577 66.816 257.577 59.456L270.249 56.576ZM313.003 80V32H324.907L325.675 40.832V80H313.003ZM344.779 80V55.424L357.451 52.544V80H344.779ZM376.651 80V55.424L389.323 52.544V80H376.651ZM344.779 55.424C344.779 52.16 344.395 49.632 343.627 47.84C342.923 46.048 341.899 44.768 340.555 44C339.211 43.168 337.643 42.752 335.851 42.752C332.587 42.688 330.059 43.68 328.267 45.728C326.539 47.776 325.675 50.816 325.675 54.848H321.451C321.451 49.728 322.187 45.408 323.659 41.888C325.195 38.304 327.307 35.584 329.995 33.728C332.683 31.808 335.851 30.848 339.499 30.848C345.323 30.848 349.771 32.64 352.843 36.224C355.979 39.744 357.515 45.184 357.451 52.544L344.779 55.424ZM376.651 55.424C376.651 52.16 376.267 49.632 375.499 47.84C374.731 46.048 373.675 44.768 372.331 44C371.051 43.168 369.483 42.752 367.627 42.752C364.363 42.688 361.835 43.68 360.043 45.728C358.315 47.776 357.451 50.816 357.451 54.848H353.227C353.227 49.728 353.963 45.408 355.435 41.888C356.971 38.304 359.083 35.584 361.771 33.728C364.523 31.808 367.723 30.848 371.371 30.848C377.195 30.848 381.643 32.64 384.715 36.224C387.787 39.744 389.323 45.184 389.323 52.544L376.651 55.424ZM453.804 81.152C447.276 81.152 441.484 79.68 436.428 76.736C431.372 73.728 427.404 69.632 424.524 64.448C421.644 59.2 420.204 53.184 420.204 46.4C420.204 39.616 421.644 33.632 424.524 28.448C427.404 23.2 431.34 19.104 436.332 16.16C441.388 13.152 447.18 11.648 453.708 11.648C458.316 11.648 462.604 12.48 466.572 14.144C470.54 15.744 473.996 18.016 476.94 20.96C479.948 23.84 482.252 27.168 483.852 30.944L471.66 35.456C470.572 33.088 469.132 31.04 467.34 29.312C465.548 27.52 463.5 26.144 461.196 25.184C458.892 24.16 456.396 23.648 453.708 23.648C449.804 23.648 446.316 24.64 443.244 26.624C440.236 28.544 437.868 31.2 436.14 34.592C434.476 37.984 433.644 41.92 433.644 46.4C433.644 50.88 434.508 54.848 436.236 58.304C437.964 61.696 440.364 64.384 443.436 66.368C446.508 68.288 450.028 69.248 453.996 69.248C456.748 69.248 459.244 68.736 461.484 67.712C463.788 66.624 465.804 65.152 467.532 63.296C469.324 61.44 470.764 59.296 471.852 56.864L484.044 61.28C482.444 65.184 480.14 68.64 477.132 71.648C474.188 74.656 470.732 76.992 466.764 78.656C462.796 80.32 458.476 81.152 453.804 81.152ZM491.878 80V12.8H504.55V80H491.878ZM544.303 80L543.823 70.304V55.712C543.823 52.832 543.503 50.4 542.863 48.416C542.223 46.368 541.231 44.832 539.887 43.808C538.607 42.72 536.879 42.176 534.703 42.176C532.783 42.176 531.055 42.592 529.519 43.424C527.983 44.256 526.671 45.6 525.583 47.456L514.063 43.52C514.959 41.472 516.271 39.488 517.999 37.568C519.727 35.584 521.967 33.984 524.719 32.768C527.535 31.488 530.959 30.848 534.991 30.848C539.791 30.848 543.791 31.712 546.991 33.44C550.255 35.168 552.687 37.728 554.287 41.12C555.887 44.448 556.655 48.544 556.591 53.408L556.303 80H544.303ZM531.055 81.152C525.295 81.152 520.815 79.872 517.615 77.312C514.479 74.752 512.911 71.136 512.911 66.464C512.911 61.344 514.607 57.504 517.999 54.944C521.455 52.32 526.287 51.008 532.495 51.008H544.687V60.416H536.911C532.751 60.416 529.871 60.928 528.271 61.952C526.671 62.912 525.871 64.288 525.871 66.08C525.871 67.488 526.511 68.608 527.791 69.44C529.071 70.208 530.863 70.592 533.167 70.592C535.215 70.592 537.039 70.112 538.639 69.152C540.239 68.128 541.487 66.848 542.383 65.312C543.343 63.712 543.823 62.08 543.823 60.416H547.183C547.183 66.944 545.903 72.032 543.343 75.68C540.847 79.328 536.751 81.152 531.055 81.152ZM584.643 81.152C581.571 81.152 578.691 80.704 576.003 79.808C573.315 78.848 570.947 77.504 568.899 75.776C566.851 73.984 565.251 71.808 564.099 69.248L574.947 64.256C575.907 65.792 577.219 67.136 578.883 68.288C580.547 69.376 582.467 69.92 584.643 69.92C586.755 69.92 588.387 69.632 589.539 69.056C590.691 68.416 591.267 67.52 591.267 66.368C591.267 65.216 590.787 64.384 589.827 63.872C588.931 63.296 587.683 62.816 586.083 62.432L581.667 61.28C577.059 60.064 573.411 58.144 570.723 55.52C568.099 52.832 566.787 49.76 566.787 46.304C566.787 41.376 568.355 37.568 571.491 34.88C574.691 32.192 579.203 30.848 585.027 30.848C588.035 30.848 590.819 31.296 593.379 32.192C596.003 33.088 598.243 34.336 600.099 35.936C601.955 37.536 603.235 39.392 603.939 41.504L593.475 46.304C593.027 45.024 591.939 44 590.211 43.232C588.483 42.4 586.755 41.984 585.027 41.984C583.299 41.984 581.955 42.368 580.995 43.136C580.099 43.84 579.651 44.832 579.651 46.112C579.651 46.944 580.099 47.648 580.995 48.224C581.891 48.736 583.171 49.184 584.835 49.568L591.075 51.104C594.211 51.872 596.707 53.12 598.563 54.848C600.483 56.512 601.859 58.4 602.691 60.512C603.587 62.56 604.035 64.576 604.035 66.56C604.035 69.44 603.171 72 601.443 74.24C599.779 76.416 597.475 78.112 594.531 79.328C591.651 80.544 588.355 81.152 584.643 81.152ZM629.268 81.152C626.196 81.152 623.316 80.704 620.628 79.808C617.94 78.848 615.572 77.504 613.524 75.776C611.476 73.984 609.876 71.808 608.724 69.248L619.572 64.256C620.532 65.792 621.844 67.136 623.508 68.288C625.172 69.376 627.092 69.92 629.268 69.92C631.38 69.92 633.012 69.632 634.164 69.056C635.316 68.416 635.892 67.52 635.892 66.368C635.892 65.216 635.412 64.384 634.452 63.872C633.556 63.296 632.308 62.816 630.708 62.432L626.292 61.28C621.684 60.064 618.036 58.144 615.348 55.52C612.724 52.832 611.412 49.76 611.412 46.304C611.412 41.376 612.98 37.568 616.116 34.88C619.316 32.192 623.828 30.848 629.652 30.848C632.66 30.848 635.444 31.296 638.004 32.192C640.628 33.088 642.868 34.336 644.724 35.936C646.58 37.536 647.86 39.392 648.564 41.504L638.1 46.304C637.652 45.024 636.564 44 634.836 43.232C633.108 42.4 631.38 41.984 629.652 41.984C627.924 41.984 626.58 42.368 625.62 43.136C624.724 43.84 624.276 44.832 624.276 46.112C624.276 46.944 624.724 47.648 625.62 48.224C626.516 48.736 627.796 49.184 629.46 49.568L635.7 51.104C638.836 51.872 641.332 53.12 643.188 54.848C645.108 56.512 646.484 58.4 647.316 60.512C648.212 62.56 648.66 64.576 648.66 66.56C648.66 69.44 647.796 72 646.068 74.24C644.404 76.416 642.1 78.112 639.156 79.328C636.276 80.544 632.98 81.152 629.268 81.152Z" fill="url(#paint0_angular_481_22125)"/>
<path d="M20.912 57.728V45.632H35.024C37.968 45.632 40.368 44.672 42.224 42.752C44.144 40.832 45.104 38.304 45.104 35.168C45.104 33.12 44.624 31.328 43.664 29.792C42.704 28.192 41.392 26.944 39.728 26.048C38.064 25.152 36.144 24.736 33.968 24.8H20.912V12.8L34.256 12.704C38.992 12.64 43.184 13.6 46.832 15.584C50.48 17.504 53.328 20.16 55.376 23.552C57.424 26.88 58.448 30.752 58.448 35.168C58.448 39.52 57.456 43.392 55.472 46.784C53.488 50.176 50.768 52.864 47.312 54.848C43.856 56.768 39.856 57.728 35.312 57.728H20.912ZM9.296 80V12.8H22.448V80H9.296ZM65.3158 80V12.8H77.9878V80H65.3158ZM117.741 80L117.261 70.304V55.712C117.261 52.832 116.941 50.4 116.301 48.416C115.661 46.368 114.669 44.832 113.325 43.808C112.045 42.72 110.317 42.176 108.141 42.176C106.221 42.176 104.493 42.592 102.957 43.424C101.421 44.256 100.109 45.6 99.0208 47.456L87.5008 43.52C88.3968 41.472 89.7088 39.488 91.4368 37.568C93.1648 35.584 95.4048 33.984 98.1568 32.768C100.973 31.488 104.397 30.848 108.429 30.848C113.229 30.848 117.229 31.712 120.429 33.44C123.693 35.168 126.125 37.728 127.725 41.12C129.325 44.448 130.093 48.544 130.029 53.408L129.741 80H117.741ZM104.493 81.152C98.7328 81.152 94.2528 79.872 91.0528 77.312C87.9168 74.752 86.3488 71.136 86.3488 66.464C86.3488 61.344 88.0448 57.504 91.4368 54.944C94.8928 52.32 99.7248 51.008 105.933 51.008H118.125V60.416H110.349C106.189 60.416 103.309 60.928 101.709 61.952C100.109 62.912 99.3088 64.288 99.3088 66.08C99.3088 67.488 99.9488 68.608 101.229 69.44C102.509 70.208 104.301 70.592 106.605 70.592C108.653 70.592 110.477 70.112 112.077 69.152C113.677 68.128 114.925 66.848 115.821 65.312C116.781 63.712 117.261 62.08 117.261 60.416H120.621C120.621 66.944 119.341 72.032 116.781 75.68C114.285 79.328 110.189 81.152 104.493 81.152ZM159.904 81.152C154.592 81.152 150.56 79.84 147.808 77.216C145.12 74.592 143.776 70.848 143.776 65.984V17.024H156.448V63.2C156.448 65.248 156.896 66.816 157.792 67.904C158.688 68.928 160 69.44 161.728 69.44C162.368 69.44 163.072 69.312 163.84 69.056C164.608 68.736 165.408 68.288 166.24 67.712L170.656 77.216C169.12 78.368 167.392 79.296 165.472 80C163.616 80.768 161.76 81.152 159.904 81.152ZM136 42.752V32H168.448V42.752H136ZM179.521 80V32H192.193V80H179.521ZM185.857 24.224C183.937 24.224 182.241 23.52 180.769 22.112C179.297 20.64 178.561 18.912 178.561 16.928C178.561 14.944 179.297 13.248 180.769 11.84C182.241 10.368 183.937 9.632 185.857 9.632C187.841 9.632 189.537 10.368 190.945 11.84C192.417 13.248 193.153 14.944 193.153 16.928C193.153 18.912 192.417 20.64 190.945 22.112C189.537 23.52 187.841 24.224 185.857 24.224ZM203.878 80V32H215.782L216.55 40.832V80H203.878ZM235.654 80V55.424L248.326 52.544V80H235.654ZM235.654 55.424C235.654 52.16 235.27 49.632 234.502 47.84C233.798 46.048 232.774 44.768 231.43 44C230.086 43.168 228.518 42.752 226.726 42.752C223.462 42.688 220.934 43.68 219.142 45.728C217.414 47.776 216.55 50.816 216.55 54.848H212.326C212.326 49.728 213.062 45.408 214.534 41.888C216.07 38.304 218.182 35.584 220.87 33.728C223.558 31.808 226.726 30.848 230.374 30.848C236.198 30.848 240.646 32.64 243.718 36.224C246.854 39.744 248.39 45.184 248.326 52.544L235.654 55.424ZM290.121 80L289.353 71.168V32H302.025V80H290.121ZM257.577 59.456V32H270.249V56.576L257.577 59.456ZM270.249 56.576C270.249 59.776 270.601 62.304 271.305 64.16C272.073 65.952 273.129 67.264 274.473 68.096C275.881 68.864 277.449 69.248 279.177 69.248C282.505 69.312 285.033 68.32 286.761 66.272C288.489 64.16 289.353 61.12 289.353 57.152H293.673C293.673 62.272 292.905 66.624 291.369 70.208C289.897 73.728 287.785 76.448 285.033 78.368C282.345 80.224 279.177 81.152 275.529 81.152C269.769 81.152 265.321 79.392 262.185 75.872C259.113 72.288 257.577 66.816 257.577 59.456L270.249 56.576ZM313.003 80V32H324.907L325.675 40.832V80H313.003ZM344.779 80V55.424L357.451 52.544V80H344.779ZM376.651 80V55.424L389.323 52.544V80H376.651ZM344.779 55.424C344.779 52.16 344.395 49.632 343.627 47.84C342.923 46.048 341.899 44.768 340.555 44C339.211 43.168 337.643 42.752 335.851 42.752C332.587 42.688 330.059 43.68 328.267 45.728C326.539 47.776 325.675 50.816 325.675 54.848H321.451C321.451 49.728 322.187 45.408 323.659 41.888C325.195 38.304 327.307 35.584 329.995 33.728C332.683 31.808 335.851 30.848 339.499 30.848C345.323 30.848 349.771 32.64 352.843 36.224C355.979 39.744 357.515 45.184 357.451 52.544L344.779 55.424ZM376.651 55.424C376.651 52.16 376.267 49.632 375.499 47.84C374.731 46.048 373.675 44.768 372.331 44C371.051 43.168 369.483 42.752 367.627 42.752C364.363 42.688 361.835 43.68 360.043 45.728C358.315 47.776 357.451 50.816 357.451 54.848H353.227C353.227 49.728 353.963 45.408 355.435 41.888C356.971 38.304 359.083 35.584 361.771 33.728C364.523 31.808 367.723 30.848 371.371 30.848C377.195 30.848 381.643 32.64 384.715 36.224C387.787 39.744 389.323 45.184 389.323 52.544L376.651 55.424ZM453.804 81.152C447.276 81.152 441.484 79.68 436.428 76.736C431.372 73.728 427.404 69.632 424.524 64.448C421.644 59.2 420.204 53.184 420.204 46.4C420.204 39.616 421.644 33.632 424.524 28.448C427.404 23.2 431.34 19.104 436.332 16.16C441.388 13.152 447.18 11.648 453.708 11.648C458.316 11.648 462.604 12.48 466.572 14.144C470.54 15.744 473.996 18.016 476.94 20.96C479.948 23.84 482.252 27.168 483.852 30.944L471.66 35.456C470.572 33.088 469.132 31.04 467.34 29.312C465.548 27.52 463.5 26.144 461.196 25.184C458.892 24.16 456.396 23.648 453.708 23.648C449.804 23.648 446.316 24.64 443.244 26.624C440.236 28.544 437.868 31.2 436.14 34.592C434.476 37.984 433.644 41.92 433.644 46.4C433.644 50.88 434.508 54.848 436.236 58.304C437.964 61.696 440.364 64.384 443.436 66.368C446.508 68.288 450.028 69.248 453.996 69.248C456.748 69.248 459.244 68.736 461.484 67.712C463.788 66.624 465.804 65.152 467.532 63.296C469.324 61.44 470.764 59.296 471.852 56.864L484.044 61.28C482.444 65.184 480.14 68.64 477.132 71.648C474.188 74.656 470.732 76.992 466.764 78.656C462.796 80.32 458.476 81.152 453.804 81.152ZM491.878 80V12.8H504.55V80H491.878ZM544.303 80L543.823 70.304V55.712C543.823 52.832 543.503 50.4 542.863 48.416C542.223 46.368 541.231 44.832 539.887 43.808C538.607 42.72 536.879 42.176 534.703 42.176C532.783 42.176 531.055 42.592 529.519 43.424C527.983 44.256 526.671 45.6 525.583 47.456L514.063 43.52C514.959 41.472 516.271 39.488 517.999 37.568C519.727 35.584 521.967 33.984 524.719 32.768C527.535 31.488 530.959 30.848 534.991 30.848C539.791 30.848 543.791 31.712 546.991 33.44C550.255 35.168 552.687 37.728 554.287 41.12C555.887 44.448 556.655 48.544 556.591 53.408L556.303 80H544.303ZM531.055 81.152C525.295 81.152 520.815 79.872 517.615 77.312C514.479 74.752 512.911 71.136 512.911 66.464C512.911 61.344 514.607 57.504 517.999 54.944C521.455 52.32 526.287 51.008 532.495 51.008H544.687V60.416H536.911C532.751 60.416 529.871 60.928 528.271 61.952C526.671 62.912 525.871 64.288 525.871 66.08C525.871 67.488 526.511 68.608 527.791 69.44C529.071 70.208 530.863 70.592 533.167 70.592C535.215 70.592 537.039 70.112 538.639 69.152C540.239 68.128 541.487 66.848 542.383 65.312C543.343 63.712 543.823 62.08 543.823 60.416H547.183C547.183 66.944 545.903 72.032 543.343 75.68C540.847 79.328 536.751 81.152 531.055 81.152ZM584.643 81.152C581.571 81.152 578.691 80.704 576.003 79.808C573.315 78.848 570.947 77.504 568.899 75.776C566.851 73.984 565.251 71.808 564.099 69.248L574.947 64.256C575.907 65.792 577.219 67.136 578.883 68.288C580.547 69.376 582.467 69.92 584.643 69.92C586.755 69.92 588.387 69.632 589.539 69.056C590.691 68.416 591.267 67.52 591.267 66.368C591.267 65.216 590.787 64.384 589.827 63.872C588.931 63.296 587.683 62.816 586.083 62.432L581.667 61.28C577.059 60.064 573.411 58.144 570.723 55.52C568.099 52.832 566.787 49.76 566.787 46.304C566.787 41.376 568.355 37.568 571.491 34.88C574.691 32.192 579.203 30.848 585.027 30.848C588.035 30.848 590.819 31.296 593.379 32.192C596.003 33.088 598.243 34.336 600.099 35.936C601.955 37.536 603.235 39.392 603.939 41.504L593.475 46.304C593.027 45.024 591.939 44 590.211 43.232C588.483 42.4 586.755 41.984 585.027 41.984C583.299 41.984 581.955 42.368 580.995 43.136C580.099 43.84 579.651 44.832 579.651 46.112C579.651 46.944 580.099 47.648 580.995 48.224C581.891 48.736 583.171 49.184 584.835 49.568L591.075 51.104C594.211 51.872 596.707 53.12 598.563 54.848C600.483 56.512 601.859 58.4 602.691 60.512C603.587 62.56 604.035 64.576 604.035 66.56C604.035 69.44 603.171 72 601.443 74.24C599.779 76.416 597.475 78.112 594.531 79.328C591.651 80.544 588.355 81.152 584.643 81.152ZM629.268 81.152C626.196 81.152 623.316 80.704 620.628 79.808C617.94 78.848 615.572 77.504 613.524 75.776C611.476 73.984 609.876 71.808 608.724 69.248L619.572 64.256C620.532 65.792 621.844 67.136 623.508 68.288C625.172 69.376 627.092 69.92 629.268 69.92C631.38 69.92 633.012 69.632 634.164 69.056C635.316 68.416 635.892 67.52 635.892 66.368C635.892 65.216 635.412 64.384 634.452 63.872C633.556 63.296 632.308 62.816 630.708 62.432L626.292 61.28C621.684 60.064 618.036 58.144 615.348 55.52C612.724 52.832 611.412 49.76 611.412 46.304C611.412 41.376 612.98 37.568 616.116 34.88C619.316 32.192 623.828 30.848 629.652 30.848C632.66 30.848 635.444 31.296 638.004 32.192C640.628 33.088 642.868 34.336 644.724 35.936C646.58 37.536 647.86 39.392 648.564 41.504L638.1 46.304C637.652 45.024 636.564 44 634.836 43.232C633.108 42.4 631.38 41.984 629.652 41.984C627.924 41.984 626.58 42.368 625.62 43.136C624.724 43.84 624.276 44.832 624.276 46.112C624.276 46.944 624.724 47.648 625.62 48.224C626.516 48.736 627.796 49.184 629.46 49.568L635.7 51.104C638.836 51.872 641.332 53.12 643.188 54.848C645.108 56.512 646.484 58.4 647.316 60.512C648.212 62.56 648.66 64.576 648.66 66.56C648.66 69.44 647.796 72 646.068 74.24C644.404 76.416 642.1 78.112 639.156 79.328C636.276 80.544 632.98 81.152 629.268 81.152Z" fill="white" fill-opacity="0.2" style="mix-blend-mode:overlay"/>
</g>
<defs>
<filter id="filter0_f_481_22125" x="0.295898" y="0.631958" width="657.364" height="89.52" filterUnits="userSpaceOnUse" color-interpolation-filters="sRGB">
<feFlood flood-opacity="0" result="BackgroundImageFix"/>
<feBlend mode="normal" in="SourceGraphic" in2="BackgroundImageFix" result="shape"/>
<feGaussianBlur stdDeviation="4.5" result="effect1_foregroundBlur_481_22125"/>
</filter>
<radialGradient id="paint0_angular_481_22125" cx="0" cy="0" r="1" gradientUnits="userSpaceOnUse" gradientTransform="translate(316.765 46.5) rotate(90) scale(57.5 314.765)">
<stop offset="0.362857" stop-color="#868686"/>
<stop offset="0.370506" stop-color="white"/>
<stop offset="0.567947" stop-color="#666186"/>
<stop offset="0.776042" stop-color="white"/>
<stop offset="0.865074" stop-color="#313636"/>
</radialGradient>
</defs>
</svg>
