<svg width="965" height="1245" viewBox="0 0 965 1245" fill="none" xmlns="http://www.w3.org/2000/svg">
<g style="mix-blend-mode:hard-light" filter="url(#filter0_f_196_3425)">
<ellipse rx="207.878" ry="63.3605" transform="matrix(0.109466 -0.993991 0.995012 0.0997545 482.129 622.447)" fill="#008DC8" fill-opacity="0.91"/>
</g>
<g style="mix-blend-mode:hard-light" filter="url(#filter1_f_196_3425)">
<ellipse rx="207.878" ry="63.3605" transform="matrix(0.109466 -0.993991 0.995012 0.0997545 482.129 622.447)" fill="#008DC8" fill-opacity="0.91"/>
</g>
<g style="mix-blend-mode:color-dodge">
<path d="M521.383 842.639L507.963 806.287L524.139 829.958M482.509 777.464L510.626 827.305L450.674 743.372L482.509 777.464ZM482.509 777.464L507.953 806.286M482.509 777.464L460.048 732.505M507.953 806.286L460.048 732.505M507.953 806.286L488.943 766.364M507.953 806.286L524.139 829.959M460.048 732.505L488.943 766.364M488.943 766.364L524.139 829.959M488.943 766.364L510.23 793.52M488.943 766.364L484.614 735.543M531.005 843.228L524.139 829.958M531.005 843.228L510.23 793.52M531.005 843.228L530.424 816.345M524.139 829.958L510.23 793.52M524.139 829.958L531.016 843.23M510.23 793.52L524.139 829.959M510.23 793.52L530.424 816.345M510.23 793.52L484.614 735.543M510.23 793.52L499.375 758.999M548.31 832.122L530.424 816.347L513.567 779.483M548.31 832.122L513.567 779.483M548.31 832.122L536.27 799.612M530.424 816.345L548.31 832.121L536.27 799.612M530.424 816.345L510.23 793.521L499.375 758.999M530.424 816.345L499.375 758.999M530.424 816.345L513.567 779.483M513.567 779.483L499.375 758.999M513.567 779.483L536.27 799.612M513.567 779.483L505.109 743.219M499.375 758.999L484.614 735.543M499.375 758.999L513.567 779.482M499.375 758.999L504.139 732.728M499.375 758.999L500.368 716.841M484.614 735.543L457.913 701.927M484.614 735.543L480.327 687.338M484.614 735.543L500.368 716.841M513.567 779.482L504.139 732.728M513.567 779.482L505.109 743.218L502.261 738.19M504.139 732.728L502.261 738.19M504.139 732.728L500.368 716.841M504.139 732.728L523.352 712.635M502.261 738.19L505.109 743.217M536.27 799.612L562.147 820.411L584.065 841.901M536.27 799.612L505.109 743.219M536.27 799.612L528.486 765.841L505.109 743.219M562.147 820.41L536.27 799.611L528.486 765.839M562.147 820.41L528.486 765.839M562.147 820.41L562.989 790.791L528.486 765.839M528.486 765.839L505.109 743.217M528.486 765.839L526.087 720.914M528.486 765.839L562.989 790.792M528.486 765.839L544.427 736.789M505.109 743.217L526.087 720.914M505.109 743.217L523.352 712.635M526.087 720.914L522.491 714.799L523.352 712.635M526.087 720.914L544.427 736.789M526.087 720.914L544.427 736.788M526.087 720.914L562.052 701.407M482.509 777.463L450.675 743.371L421.598 691.337M482.509 777.463L421.598 691.337M482.509 777.463L460.048 732.504L421.598 691.337M421.598 691.339L460.048 732.506M421.598 691.339L418.486 658.945M421.598 691.339L382.214 650.211M421.598 691.339L376.074 615.349M421.598 691.339L450.674 743.373L382.214 650.211M460.048 732.506L418.486 658.945M460.048 732.506L488.943 766.365M460.048 732.506L457.912 701.928M460.048 732.506L457.913 701.927M418.486 658.945L376.074 615.349M418.486 658.945L457.913 701.927M418.486 658.945L444.363 646.39M382.214 650.211L376.074 615.349M376.074 615.348L418.486 658.944M376.074 615.348L403.742 603.911M376.074 615.348L350.833 587.007M376.074 615.348L382.214 650.21L350.833 587.007M418.486 658.944L403.742 603.911M418.486 658.944L444.363 646.39M403.742 603.911L374.453 568.734M403.742 603.911L416.753 560.113M403.742 603.911L444.363 646.39M403.742 603.911L451.484 600.796M350.833 587.007L361.896 545.651M350.833 587.007L374.453 568.734M376.074 615.35L350.833 587.009L374.452 568.736M376.074 615.35L374.452 568.736M376.074 615.35L403.742 603.913L374.452 568.736M374.453 568.734L416.753 560.113M374.453 568.734L361.896 545.651M374.453 568.734L395.429 529.227M416.753 560.113L395.429 529.227M416.753 560.113L451.484 600.796M416.753 560.113L463.275 551.477M361.896 545.651L395.429 529.227M361.896 545.651L391.551 511.005M395.429 529.227L391.551 511.005M395.429 529.227L416.753 560.114M395.429 529.227L437.125 516.54M391.551 511.005L428.96 479.502M391.551 511.005L425.59 492.437M488.943 766.365L457.912 701.928M488.943 766.365L484.614 735.544L457.912 701.928M457.913 701.927L480.327 687.338M457.913 701.927L444.363 646.39M480.327 687.338L444.363 646.39M480.327 687.338L500.371 716.83M480.327 687.338L521.061 682.483M480.327 687.338L500.368 716.841M416.753 560.114L437.125 516.54M416.753 560.114L463.275 551.477M437.125 516.54L463.275 551.477M437.125 516.54L425.59 492.437M437.125 516.54L460.549 473.711M437.125 516.54L476.281 500.416M463.275 551.477L499.522 593.895M463.275 551.477L503.808 536.118M463.275 551.477L451.484 600.796M444.362 646.392L480.326 687.339M444.362 646.392L491.333 645.421M444.362 646.392L403.742 603.912L451.484 600.797M444.362 646.392L451.484 600.797M480.326 687.339L491.333 645.421M480.326 687.339L521.061 682.485L491.333 645.421M491.333 645.421L451.484 600.797M451.484 600.796L491.333 645.419M451.484 600.796L499.52 593.904M451.484 600.796L463.275 551.477M491.333 645.419L499.52 593.904M491.333 645.419L537.072 637.479M499.52 593.904L463.275 551.477M499.52 593.904L537.072 637.479M499.522 593.895L503.808 536.118M499.522 593.895L537.074 637.47L538.091 576.986M499.522 593.895L538.091 576.986M503.808 536.118L476.281 500.416M503.808 536.118L506.437 476.665M503.808 536.118L538.091 576.986M503.808 536.118L532.329 510.286M463.275 551.477L437.126 516.539L476.282 500.415M463.275 551.477L476.282 500.415M463.275 551.477L503.809 536.116L476.282 500.415M395.429 529.228L391.551 511.007L425.59 492.439M395.429 529.228L425.59 492.439M395.429 529.228L437.125 516.541L425.59 492.439M425.59 492.439L428.959 479.504L457.376 456.842M425.59 492.439L457.376 456.842M425.59 492.439L460.549 473.713L457.376 456.842M425.59 492.437L460.549 473.711M425.59 492.437L428.96 479.502M460.549 473.711L476.281 500.416M460.549 473.711L489.502 450.188M428.96 479.502L463.294 447.619M428.96 479.502L457.376 456.84M460.548 473.714L457.375 456.843L482.768 432.176M460.548 473.714L482.768 432.176M460.548 473.714L489.501 450.189L482.768 432.176M457.376 456.84L463.294 447.619M457.376 456.84L483.264 420.941M457.376 456.84L482.769 432.174M463.294 447.619L483.264 420.941M483.264 420.941L482.769 432.174M483.264 420.941L499.539 392.487M482.769 432.174L499.539 392.487M482.769 432.174L489.502 450.187M482.769 432.174L501.942 403.375M499.539 392.487L501.942 403.375M476.281 500.416L506.437 476.665M476.281 500.416L489.502 450.188M506.437 476.665L489.502 450.188M506.437 476.665L489.502 450.187M506.437 476.665L509.705 420.16M506.437 476.665L532.329 510.286M506.437 476.665L525.32 444.043M489.502 450.187L509.705 420.16M489.502 450.187L501.942 403.375M509.705 420.16L501.942 403.375M509.705 420.16L515.917 371.238M509.705 420.16L525.32 444.043M509.705 420.16L522.655 384.908M501.942 403.375L515.917 371.238M515.917 371.238L522.655 384.908M504.139 732.729L500.368 716.842L531.174 705.434M504.139 732.729L531.174 705.434M504.139 732.729L523.352 712.636M531.174 705.434L529.623 709.361L523.352 712.636M500.371 716.83L521.061 682.483M500.371 716.83L531.185 705.434M521.061 682.483L531.185 705.434M521.061 682.483L562.907 672.879M531.185 705.434L562.907 672.879M531.185 705.434L529.624 709.358L523.352 712.635M531.185 705.434L562.499 688.739M531.185 705.434L562.499 688.74L565.708 683.399L562.907 672.879M562.907 672.879L537.071 637.48M562.907 672.879L569.87 616.21M562.907 672.879L521.061 682.484M562.907 672.879L585.197 643.671M521.061 682.484L491.333 645.42L537.071 637.48M521.061 682.484L537.071 637.48M537.071 637.48L569.87 616.21M569.87 616.21L538.091 576.987L561.642 546.776M569.87 616.21L561.642 546.776M569.87 616.21L583.445 578.273M569.87 616.21L585.197 643.671M538.091 576.986L569.87 616.209M538.091 576.986L537.072 637.479M538.091 576.986L532.329 510.286M538.091 576.986L561.645 546.765L532.329 510.286M569.87 616.209L537.072 637.479M569.87 616.209L585.197 643.671M569.87 616.209L583.446 578.273M523.352 712.635L562.499 688.739M523.352 712.635L557.836 694.605M523.352 712.636L522.491 714.801L526.086 720.916M523.352 712.636L557.835 694.607M526.086 720.916L557.835 694.607M526.086 720.916L562.051 701.41L557.835 694.607M557.835 694.607L562.051 701.409M557.835 694.607L594.915 670.91M562.499 688.739L557.836 694.605M562.499 688.739L591.263 661.016M562.499 688.739L565.708 683.398L562.908 672.878L585.197 643.67M562.499 688.739L585.197 643.67M557.836 694.605L591.263 661.016M557.836 694.605L594.915 670.909M561.642 546.776L583.445 578.273M583.445 578.273L599.016 603.4M583.445 578.273L590.201 533.318M591.263 661.016L585.197 643.67M591.263 661.016L594.915 670.909M591.262 661.018L585.197 643.672L599.016 603.4M591.262 661.018L599.016 603.4M591.262 661.018L594.915 670.91M591.262 661.018L614.486 624.003M591.262 661.018L614.486 624.002M599.016 603.4L590.201 533.318M599.016 603.4L614.486 624.003M599.016 603.4L613.208 560.964M599.016 603.4L614.486 624.002M590.201 533.318L568.498 503.257L574.536 459.162M590.201 533.318L574.536 459.162M590.201 533.318L613.208 560.963L599.016 603.4M590.201 533.318L599.016 603.4M590.201 533.318L601.697 491M585.197 643.671L583.446 578.273M585.197 643.671L599.016 603.4M583.446 578.273L599.016 603.4M532.329 510.286L525.32 444.043M532.329 510.286L547.029 473.241M561.644 546.766L532.329 510.287L547.028 473.243M561.644 546.766L547.028 473.243M561.644 546.766L568.498 503.258L547.028 473.243M525.32 444.043L547.029 473.241M525.32 444.043L534.877 404.307M547.029 473.241L534.877 404.307M547.029 473.241L568.498 503.256M547.029 473.241L551.195 428.358M547.029 473.241L551.195 428.359M534.877 404.307L522.655 384.908M534.877 404.307L534.03 348.697M534.877 404.307L551.195 428.359M534.877 404.307L542.346 363.318M534.877 404.307L542.346 363.317L534.03 348.697M525.319 444.045L509.704 420.162L522.655 384.91M525.319 444.045L522.655 384.91M525.319 444.045L534.877 404.308L522.655 384.91M522.655 384.908L534.03 348.697M583.446 578.272L561.645 546.764L568.498 503.256M583.446 578.272L568.498 503.256M583.446 578.272L590.201 533.317M568.498 503.256L590.201 533.317M568.498 503.256L551.195 428.358M568.498 503.256L574.536 459.161L551.195 428.358M574.536 459.162L551.195 428.359M574.536 459.162L561.729 389.289M574.536 459.162L601.697 491M574.536 459.162L588.561 421.123M590.201 533.317L613.208 560.961M590.201 533.317L601.697 491M551.195 428.359L561.729 389.289M551.195 428.359L542.346 363.318M561.729 389.289L542.346 363.318M561.729 389.289L561.478 332.043M561.729 389.289L588.561 421.123M561.729 389.289L582.382 358.317M542.346 363.318L561.478 332.043M561.478 332.043L582.382 358.317M584.066 841.899L562.148 820.409L562.99 790.791M584.066 841.899L562.99 790.791M584.066 841.899L592.137 813.716L562.99 790.791M562.989 790.792L592.137 813.717M562.989 790.792L574.928 760.536M562.989 790.792L544.427 736.789M592.137 813.717L574.928 760.536M592.137 813.717L606.193 785.036M574.928 760.536L544.427 736.789M574.928 760.536L576.951 713.482M574.928 760.536L600.287 731.993M574.928 760.536L606.193 785.036M544.427 736.789L576.951 713.482M576.951 713.482L600.287 731.993M576.951 713.482L562.051 701.409M576.951 713.482L600.973 678.271M576.951 713.482L612.824 688.578M600.287 731.993L606.193 785.036M600.287 731.993L612.824 688.578M544.427 736.788L562.052 701.407M544.427 736.788L576.951 713.481L562.052 701.407M562.051 701.409L600.973 678.271M562.051 701.409L594.915 670.91M600.973 678.271L594.915 670.91M600.973 678.271L594.915 670.909M600.973 678.271L627.37 638.93M600.973 678.271L612.824 688.578M600.973 678.271L634.893 648.196L612.824 688.578M600.973 678.271L634.893 648.194L627.37 638.93M594.915 670.91L614.486 624.003M594.915 670.91L627.37 638.932L614.486 624.003M594.915 670.909L627.37 638.93M627.37 638.93L614.486 624.002M627.37 638.93L634.125 583.434L614.486 624.002M614.486 624.003L613.208 560.964M614.486 624.003L634.124 583.436L613.208 560.964M613.208 560.961L634.125 583.433M613.208 560.961L628.388 519.542M613.208 560.961L601.697 491M634.125 583.433L628.388 519.542M634.125 583.433L651.025 542.28L628.388 519.542M628.388 519.542L601.697 491M628.387 519.544L601.697 491.002L617.657 452.912M628.387 519.544L617.657 452.912M628.387 519.544L651.024 542.283M628.387 519.544L644.538 480.53M617.657 452.912L588.561 421.123M617.657 452.912L609.415 389.145M617.657 452.912L644.538 480.53M617.657 452.912L637.169 418.828M601.697 491.003L574.536 459.164L588.561 421.124M601.697 491.003L588.561 421.124M601.697 491.003L617.657 452.913L588.561 421.124M588.561 421.123L609.415 389.145M609.415 389.145L582.382 358.317M609.415 389.145L611.143 333.871M609.415 389.145L637.169 418.828M609.415 389.145L635.299 361.424M588.562 421.122L561.729 389.288L582.383 358.316M588.562 421.122L582.383 358.316M588.562 421.122L609.415 389.143L582.383 358.316M582.382 358.317L611.143 333.871M611.143 333.871L635.299 361.424M651.024 542.283L644.538 480.53M651.024 542.283L665.379 501.687M644.538 480.53L665.379 501.687M644.538 480.53L660.941 443.474M644.538 480.53L637.169 418.828M665.379 501.687L660.941 443.474M665.379 501.687L676.687 461.032L660.941 443.474M660.941 443.474L637.169 418.828M660.941 443.474L658.634 386.733M660.941 443.474L676.216 406.157L658.634 386.733M637.169 418.828L658.634 386.733M637.169 418.828L635.299 361.424M658.634 386.733L635.299 361.424M658.635 386.732L635.299 361.423L663.712 334.363M658.635 386.732L663.712 334.363M658.635 386.732L676.216 406.155M658.635 386.732L679.773 352.82M663.712 334.363L679.773 352.82M676.687 461.031L660.941 443.472L676.216 406.155M676.687 461.031L676.216 406.155M676.687 461.031L685.827 418.22M676.216 406.155L685.827 418.22M676.216 406.155L690.055 364.92M676.216 406.155L679.773 352.82M685.827 418.22L690.055 364.92M690.055 364.92L679.773 352.82M483.264 420.939L483.781 411.819L463.294 447.618L483.264 420.939Z" stroke="white" stroke-width="0.25" stroke-linejoin="round"/>
</g>
<g style="mix-blend-mode:color-dodge">
<path d="M521.383 842.639L507.963 806.287L524.139 829.958M482.509 777.464L510.626 827.305L450.674 743.372L482.509 777.464ZM482.509 777.464L507.953 806.286M482.509 777.464L460.048 732.505M507.953 806.286L460.048 732.505M507.953 806.286L488.943 766.364M507.953 806.286L524.139 829.959M460.048 732.505L488.943 766.364M488.943 766.364L524.139 829.959M488.943 766.364L510.23 793.52M488.943 766.364L484.614 735.543M531.005 843.228L524.139 829.958M531.005 843.228L510.23 793.52M531.005 843.228L530.424 816.345M524.139 829.958L510.23 793.52M524.139 829.958L531.016 843.23M510.23 793.52L524.139 829.959M510.23 793.52L530.424 816.345M510.23 793.52L484.614 735.543M510.23 793.52L499.375 758.999M548.31 832.122L530.424 816.347L513.567 779.483M548.31 832.122L513.567 779.483M548.31 832.122L536.27 799.612M530.424 816.345L548.31 832.121L536.27 799.612M530.424 816.345L510.23 793.521L499.375 758.999M530.424 816.345L499.375 758.999M530.424 816.345L513.567 779.483M513.567 779.483L499.375 758.999M513.567 779.483L536.27 799.612M513.567 779.483L505.109 743.219M499.375 758.999L484.614 735.543M499.375 758.999L513.567 779.482M499.375 758.999L504.139 732.728M499.375 758.999L500.368 716.841M484.614 735.543L457.913 701.927M484.614 735.543L480.327 687.338M484.614 735.543L500.368 716.841M513.567 779.482L504.139 732.728M513.567 779.482L505.109 743.218L502.261 738.19M504.139 732.728L502.261 738.19M504.139 732.728L500.368 716.841M504.139 732.728L523.352 712.635M502.261 738.19L505.109 743.217M536.27 799.612L562.147 820.411L584.065 841.901M536.27 799.612L505.109 743.219M536.27 799.612L528.486 765.841L505.109 743.219M562.147 820.41L536.27 799.611L528.486 765.839M562.147 820.41L528.486 765.839M562.147 820.41L562.989 790.791L528.486 765.839M528.486 765.839L505.109 743.217M528.486 765.839L526.087 720.914M528.486 765.839L562.989 790.792M528.486 765.839L544.427 736.789M505.109 743.217L526.087 720.914M505.109 743.217L523.352 712.635M526.087 720.914L522.491 714.799L523.352 712.635M526.087 720.914L544.427 736.789M526.087 720.914L544.427 736.788M526.087 720.914L562.052 701.407M482.509 777.463L450.675 743.371L421.598 691.337M482.509 777.463L421.598 691.337M482.509 777.463L460.048 732.504L421.598 691.337M421.598 691.339L460.048 732.506M421.598 691.339L418.486 658.945M421.598 691.339L382.214 650.211M421.598 691.339L376.074 615.349M421.598 691.339L450.674 743.373L382.214 650.211M460.048 732.506L418.486 658.945M460.048 732.506L488.943 766.365M460.048 732.506L457.912 701.928M460.048 732.506L457.913 701.927M418.486 658.945L376.074 615.349M418.486 658.945L457.913 701.927M418.486 658.945L444.363 646.39M382.214 650.211L376.074 615.349M376.074 615.348L418.486 658.944M376.074 615.348L403.742 603.911M376.074 615.348L350.833 587.007M376.074 615.348L382.214 650.21L350.833 587.007M418.486 658.944L403.742 603.911M418.486 658.944L444.363 646.39M403.742 603.911L374.453 568.734M403.742 603.911L416.753 560.113M403.742 603.911L444.363 646.39M403.742 603.911L451.484 600.796M350.833 587.007L361.896 545.651M350.833 587.007L374.453 568.734M376.074 615.35L350.833 587.009L374.452 568.736M376.074 615.35L374.452 568.736M376.074 615.35L403.742 603.913L374.452 568.736M374.453 568.734L416.753 560.113M374.453 568.734L361.896 545.651M374.453 568.734L395.429 529.227M416.753 560.113L395.429 529.227M416.753 560.113L451.484 600.796M416.753 560.113L463.275 551.477M361.896 545.651L395.429 529.227M361.896 545.651L391.551 511.005M395.429 529.227L391.551 511.005M395.429 529.227L416.753 560.114M395.429 529.227L437.125 516.54M391.551 511.005L428.96 479.502M391.551 511.005L425.59 492.437M488.943 766.365L457.912 701.928M488.943 766.365L484.614 735.544L457.912 701.928M457.913 701.927L480.327 687.338M457.913 701.927L444.363 646.39M480.327 687.338L444.363 646.39M480.327 687.338L500.371 716.83M480.327 687.338L521.061 682.483M480.327 687.338L500.368 716.841M416.753 560.114L437.125 516.54M416.753 560.114L463.275 551.477M437.125 516.54L463.275 551.477M437.125 516.54L425.59 492.437M437.125 516.54L460.549 473.711M437.125 516.54L476.281 500.416M463.275 551.477L499.522 593.895M463.275 551.477L503.808 536.118M463.275 551.477L451.484 600.796M444.362 646.392L480.326 687.339M444.362 646.392L491.333 645.421M444.362 646.392L403.742 603.912L451.484 600.797M444.362 646.392L451.484 600.797M480.326 687.339L491.333 645.421M480.326 687.339L521.061 682.485L491.333 645.421M491.333 645.421L451.484 600.797M451.484 600.796L491.333 645.419M451.484 600.796L499.52 593.904M451.484 600.796L463.275 551.477M491.333 645.419L499.52 593.904M491.333 645.419L537.072 637.479M499.52 593.904L463.275 551.477M499.52 593.904L537.072 637.479M499.522 593.895L503.808 536.118M499.522 593.895L537.074 637.47L538.091 576.986M499.522 593.895L538.091 576.986M503.808 536.118L476.281 500.416M503.808 536.118L506.437 476.665M503.808 536.118L538.091 576.986M503.808 536.118L532.329 510.286M463.275 551.477L437.126 516.539L476.282 500.415M463.275 551.477L476.282 500.415M463.275 551.477L503.809 536.116L476.282 500.415M395.429 529.228L391.551 511.007L425.59 492.439M395.429 529.228L425.59 492.439M395.429 529.228L437.125 516.541L425.59 492.439M425.59 492.439L428.959 479.504L457.376 456.842M425.59 492.439L457.376 456.842M425.59 492.439L460.549 473.713L457.376 456.842M425.59 492.437L460.549 473.711M425.59 492.437L428.96 479.502M460.549 473.711L476.281 500.416M460.549 473.711L489.502 450.188M428.96 479.502L463.294 447.619M428.96 479.502L457.376 456.84M460.548 473.714L457.375 456.843L482.768 432.176M460.548 473.714L482.768 432.176M460.548 473.714L489.501 450.189L482.768 432.176M457.376 456.84L463.294 447.619M457.376 456.84L483.264 420.941M457.376 456.84L482.769 432.174M463.294 447.619L483.264 420.941M483.264 420.941L482.769 432.174M483.264 420.941L499.539 392.487M482.769 432.174L499.539 392.487M482.769 432.174L489.502 450.187M482.769 432.174L501.942 403.375M499.539 392.487L501.942 403.375M476.281 500.416L506.437 476.665M476.281 500.416L489.502 450.188M506.437 476.665L489.502 450.188M506.437 476.665L489.502 450.187M506.437 476.665L509.705 420.16M506.437 476.665L532.329 510.286M506.437 476.665L525.32 444.043M489.502 450.187L509.705 420.16M489.502 450.187L501.942 403.375M509.705 420.16L501.942 403.375M509.705 420.16L515.917 371.238M509.705 420.16L525.32 444.043M509.705 420.16L522.655 384.908M501.942 403.375L515.917 371.238M515.917 371.238L522.655 384.908M504.139 732.729L500.368 716.842L531.174 705.434M504.139 732.729L531.174 705.434M504.139 732.729L523.352 712.636M531.174 705.434L529.623 709.361L523.352 712.636M500.371 716.83L521.061 682.483M500.371 716.83L531.185 705.434M521.061 682.483L531.185 705.434M521.061 682.483L562.907 672.879M531.185 705.434L562.907 672.879M531.185 705.434L529.624 709.358L523.352 712.635M531.185 705.434L562.499 688.739M531.185 705.434L562.499 688.74L565.708 683.399L562.907 672.879M562.907 672.879L537.071 637.48M562.907 672.879L569.87 616.21M562.907 672.879L521.061 682.484M562.907 672.879L585.197 643.671M521.061 682.484L491.333 645.42L537.071 637.48M521.061 682.484L537.071 637.48M537.071 637.48L569.87 616.21M569.87 616.21L538.091 576.987L561.642 546.776M569.87 616.21L561.642 546.776M569.87 616.21L583.445 578.273M569.87 616.21L585.197 643.671M538.091 576.986L569.87 616.209M538.091 576.986L537.072 637.479M538.091 576.986L532.329 510.286M538.091 576.986L561.645 546.765L532.329 510.286M569.87 616.209L537.072 637.479M569.87 616.209L585.197 643.671M569.87 616.209L583.446 578.273M523.352 712.635L562.499 688.739M523.352 712.635L557.836 694.605M523.352 712.636L522.491 714.801L526.086 720.916M523.352 712.636L557.835 694.607M526.086 720.916L557.835 694.607M526.086 720.916L562.051 701.41L557.835 694.607M557.835 694.607L562.051 701.409M557.835 694.607L594.915 670.91M562.499 688.739L557.836 694.605M562.499 688.739L591.263 661.016M562.499 688.739L565.708 683.398L562.908 672.878L585.197 643.67M562.499 688.739L585.197 643.67M557.836 694.605L591.263 661.016M557.836 694.605L594.915 670.909M561.642 546.776L583.445 578.273M583.445 578.273L599.016 603.4M583.445 578.273L590.201 533.318M591.263 661.016L585.197 643.67M591.263 661.016L594.915 670.909M591.262 661.018L585.197 643.672L599.016 603.4M591.262 661.018L599.016 603.4M591.262 661.018L594.915 670.91M591.262 661.018L614.486 624.003M591.262 661.018L614.486 624.002M599.016 603.4L590.201 533.318M599.016 603.4L614.486 624.003M599.016 603.4L613.208 560.964M599.016 603.4L614.486 624.002M590.201 533.318L568.498 503.257L574.536 459.162M590.201 533.318L574.536 459.162M590.201 533.318L613.208 560.963L599.016 603.4M590.201 533.318L599.016 603.4M590.201 533.318L601.697 491M585.197 643.671L583.446 578.273M585.197 643.671L599.016 603.4M583.446 578.273L599.016 603.4M532.329 510.286L525.32 444.043M532.329 510.286L547.029 473.241M561.644 546.766L532.329 510.287L547.028 473.243M561.644 546.766L547.028 473.243M561.644 546.766L568.498 503.258L547.028 473.243M525.32 444.043L547.029 473.241M525.32 444.043L534.877 404.307M547.029 473.241L534.877 404.307M547.029 473.241L568.498 503.256M547.029 473.241L551.195 428.358M547.029 473.241L551.195 428.359M534.877 404.307L522.655 384.908M534.877 404.307L534.03 348.697M534.877 404.307L551.195 428.359M534.877 404.307L542.346 363.318M534.877 404.307L542.346 363.317L534.03 348.697M525.319 444.045L509.704 420.162L522.655 384.91M525.319 444.045L522.655 384.91M525.319 444.045L534.877 404.308L522.655 384.91M522.655 384.908L534.03 348.697M583.446 578.272L561.645 546.764L568.498 503.256M583.446 578.272L568.498 503.256M583.446 578.272L590.201 533.317M568.498 503.256L590.201 533.317M568.498 503.256L551.195 428.358M568.498 503.256L574.536 459.161L551.195 428.358M574.536 459.162L551.195 428.359M574.536 459.162L561.729 389.289M574.536 459.162L601.697 491M574.536 459.162L588.561 421.123M590.201 533.317L613.208 560.961M590.201 533.317L601.697 491M551.195 428.359L561.729 389.289M551.195 428.359L542.346 363.318M561.729 389.289L542.346 363.318M561.729 389.289L561.478 332.043M561.729 389.289L588.561 421.123M561.729 389.289L582.382 358.317M542.346 363.318L561.478 332.043M561.478 332.043L582.382 358.317M584.066 841.899L562.148 820.409L562.99 790.791M584.066 841.899L562.99 790.791M584.066 841.899L592.137 813.716L562.99 790.791M562.989 790.792L592.137 813.717M562.989 790.792L574.928 760.536M562.989 790.792L544.427 736.789M592.137 813.717L574.928 760.536M592.137 813.717L606.193 785.036M574.928 760.536L544.427 736.789M574.928 760.536L576.951 713.482M574.928 760.536L600.287 731.993M574.928 760.536L606.193 785.036M544.427 736.789L576.951 713.482M576.951 713.482L600.287 731.993M576.951 713.482L562.051 701.409M576.951 713.482L600.973 678.271M576.951 713.482L612.824 688.578M600.287 731.993L606.193 785.036M600.287 731.993L612.824 688.578M544.427 736.788L562.052 701.407M544.427 736.788L576.951 713.481L562.052 701.407M562.051 701.409L600.973 678.271M562.051 701.409L594.915 670.91M600.973 678.271L594.915 670.91M600.973 678.271L594.915 670.909M600.973 678.271L627.37 638.93M600.973 678.271L612.824 688.578M600.973 678.271L634.893 648.196L612.824 688.578M600.973 678.271L634.893 648.194L627.37 638.93M594.915 670.91L614.486 624.003M594.915 670.91L627.37 638.932L614.486 624.003M594.915 670.909L627.37 638.93M627.37 638.93L614.486 624.002M627.37 638.93L634.125 583.434L614.486 624.002M614.486 624.003L613.208 560.964M614.486 624.003L634.124 583.436L613.208 560.964M613.208 560.961L634.125 583.433M613.208 560.961L628.388 519.542M613.208 560.961L601.697 491M634.125 583.433L628.388 519.542M634.125 583.433L651.025 542.28L628.388 519.542M628.388 519.542L601.697 491M628.387 519.544L601.697 491.002L617.657 452.912M628.387 519.544L617.657 452.912M628.387 519.544L651.024 542.283M628.387 519.544L644.538 480.53M617.657 452.912L588.561 421.123M617.657 452.912L609.415 389.145M617.657 452.912L644.538 480.53M617.657 452.912L637.169 418.828M601.697 491.003L574.536 459.164L588.561 421.124M601.697 491.003L588.561 421.124M601.697 491.003L617.657 452.913L588.561 421.124M588.561 421.123L609.415 389.145M609.415 389.145L582.382 358.317M609.415 389.145L611.143 333.871M609.415 389.145L637.169 418.828M609.415 389.145L635.299 361.424M588.562 421.122L561.729 389.288L582.383 358.316M588.562 421.122L582.383 358.316M588.562 421.122L609.415 389.143L582.383 358.316M582.382 358.317L611.143 333.871M611.143 333.871L635.299 361.424M651.024 542.283L644.538 480.53M651.024 542.283L665.379 501.687M644.538 480.53L665.379 501.687M644.538 480.53L660.941 443.474M644.538 480.53L637.169 418.828M665.379 501.687L660.941 443.474M665.379 501.687L676.687 461.032L660.941 443.474M660.941 443.474L637.169 418.828M660.941 443.474L658.634 386.733M660.941 443.474L676.216 406.157L658.634 386.733M637.169 418.828L658.634 386.733M637.169 418.828L635.299 361.424M658.634 386.733L635.299 361.424M658.635 386.732L635.299 361.423L663.712 334.363M658.635 386.732L663.712 334.363M658.635 386.732L676.216 406.155M658.635 386.732L679.773 352.82M663.712 334.363L679.773 352.82M676.687 461.031L660.941 443.472L676.216 406.155M676.687 461.031L676.216 406.155M676.687 461.031L685.827 418.22M676.216 406.155L685.827 418.22M676.216 406.155L690.055 364.92M676.216 406.155L679.773 352.82M685.827 418.22L690.055 364.92M690.055 364.92L679.773 352.82M483.264 420.939L483.781 411.819L463.294 447.618L483.264 420.939Z" stroke="white" stroke-width="0.25" stroke-linejoin="round"/>
</g>
<defs>
<filter id="filter0_f_196_3425" x="0.0849609" y="0.719543" width="964.088" height="1243.45" filterUnits="userSpaceOnUse" color-interpolation-filters="sRGB">
<feFlood flood-opacity="0" result="BackgroundImageFix"/>
<feBlend mode="normal" in="SourceGraphic" in2="BackgroundImageFix" result="shape"/>
<feGaussianBlur stdDeviation="207.5" result="effect1_foregroundBlur_196_3425"/>
</filter>
<filter id="filter1_f_196_3425" x="0.0849609" y="0.719543" width="964.088" height="1243.45" filterUnits="userSpaceOnUse" color-interpolation-filters="sRGB">
<feFlood flood-opacity="0" result="BackgroundImageFix"/>
<feBlend mode="normal" in="SourceGraphic" in2="BackgroundImageFix" result="shape"/>
<feGaussianBlur stdDeviation="207.5" result="effect1_foregroundBlur_196_3425"/>
</filter>
</defs>
</svg>
