<svg width="110" height="152" viewBox="0 0 110 152" fill="none" xmlns="http://www.w3.org/2000/svg">
<path d="M1.10405 56.6975H53.155C52.0929 62.2302 48.8911 66.7014 43.4966 70.1195C37.9783 73.5907 30.9678 75.3441 22.4335 75.3441H1H0.5V75.8441V87.1746V87.3479L0.607157 87.4839L50.8615 151.309L51.0116 151.5H51.2543H82.052H83.0881L82.4435 150.689L36.1632 92.4563H36.6879H36.7006L36.7133 92.4557C47.7073 91.896 57.2125 88.2196 65.2082 81.4225L65.2085 81.4223C73.1544 74.6573 77.7474 66.4109 78.9584 56.6975H109H109.5V56.1975V38.7339V38.2339H109H78.5348C77.994 34.5057 76.6338 30.9775 74.4609 27.6525C72.3296 24.2876 69.7557 21.5827 66.737 19.5473V18.8597H109H109.5V18.3597V1V0.5H109H1.10405H0.604046V1V19.6071V20.1071H1.10405H27.2197C34.3522 20.1071 40.2069 21.819 44.8196 25.2075L44.8235 25.2104C49.2737 28.4142 51.9813 32.7459 52.9541 38.2339H1.10405H0.604046V38.7339V56.1975V56.6975H1.10405Z" fill="url(#paint0_linear_83_89)" stroke="url(#paint1_diamond_83_89)"/>
<defs>
<linearGradient id="paint0_linear_83_89" x1="-52.5" y1="-411.5" x2="234.445" y2="-358.672" gradientUnits="userSpaceOnUse">
<stop offset="0.336017" stop-color="#00B2FF"/>
<stop offset="1" stop-color="#031245" stop-opacity="0"/>
</linearGradient>
<radialGradient id="paint1_diamond_83_89" cx="0" cy="0" r="1" gradientUnits="userSpaceOnUse" gradientTransform="translate(46.7178 59.8235) rotate(91.3198) scale(258.892 127.058)">
<stop stop-color="#24CAFF"/>
<stop offset="1" stop-color="#0D7798" stop-opacity="0"/>
</radialGradient>
</defs>
</svg>
