<svg width="182" height="195" viewBox="0 0 182 195" fill="none" xmlns="http://www.w3.org/2000/svg">
<mask id="path-1-inside-1_83_93" fill="white">
<path fill-rule="evenodd" clip-rule="evenodd" d="M121.008 43.0068C126.152 46.0178 130.788 49.8147 134.745 54.2582C138.62 58.6059 141.727 63.5744 143.935 68.9533C145.19 72.0379 146.177 75.2234 146.887 78.475C148.534 85.7776 148.664 93.3378 147.27 100.692C146.514 104.667 145.365 108.558 143.84 112.309L143.648 112.705C140.361 120.64 134.729 128.353 129.289 135.97C126.497 139.81 123.736 143.619 121.407 147.317C120.676 148.469 119.64 149.4 118.413 150.007C117.187 150.614 115.816 150.875 114.451 150.76L70.4786 157.267C68.6778 157.512 66.8487 157.099 65.3314 156.104C63.8141 155.108 62.7119 153.599 62.2299 151.855C61.126 148.675 59.771 145.587 58.1773 142.619C56.8468 140.078 55.2418 137.689 53.3908 135.494C51.1092 132.907 48.7958 130.273 46.5461 127.242C43.9634 123.801 41.7344 120.112 39.8929 116.228C37.9622 112.162 36.4597 107.907 35.4095 103.533C34.3711 99.1387 33.8623 94.6371 33.8938 90.1232C33.8943 85.418 34.4893 80.7316 35.6648 76.174C36.9404 71.3012 38.7712 66.5892 41.1214 62.1295L41.4405 61.574C44.4815 56.44 48.3211 51.8176 52.8164 47.8787C57.2985 43.9857 62.3989 40.8593 67.9098 38.6268L68.3566 38.4681C72.4631 36.8434 76.747 35.7036 81.1206 35.072C85.7565 34.4262 90.4524 34.3197 95.1131 34.7547C99.6669 35.1684 104.161 36.0784 108.515 37.4683C112.852 38.8498 117.021 40.7074 120.944 43.0068H121.008ZM114.626 181.484C112.213 185.619 108.76 189.059 104.606 191.466C101.1 193.496 97.1677 194.691 93.1187 194.957C89.071 195.201 85.0281 194.408 81.3758 192.656C78.7427 191.365 76.369 189.606 74.3716 187.466L114.722 181.484H114.626ZM118.471 159.028V161.647V162.567C118.599 164.284 118.599 166.008 118.471 167.725L117.689 171.518L68.8033 178.754L67.9418 176.802L66.0431 169.026V166.773L118.36 159.028H118.471ZM89.8958 5.98332C89.9252 4.37262 90.5946 2.83903 91.7577 1.71789C92.9207 0.596748 94.4828 -0.0207108 96.1023 0.000530436H96.5331C98.0761 0.13673 99.5099 0.849224 100.546 1.9946C101.582 3.13998 102.144 4.63322 102.117 6.17375C102.126 6.27938 102.126 6.38551 102.117 6.49114L101.782 19.52C101.791 19.6574 101.791 19.7952 101.782 19.9326C101.661 21.4731 100.956 22.9103 99.8095 23.9533C98.6631 24.9963 97.1612 25.5672 95.6077 25.5504H95.1769C93.6281 25.4257 92.1848 24.7204 91.1391 23.5772C90.0935 22.4341 89.5236 20.9384 89.5448 19.393C89.536 19.2927 89.536 19.1918 89.5448 19.0915L89.8639 5.99919L89.8958 5.98332ZM22.3424 28.8036C21.4497 27.9844 20.822 26.9199 20.5389 25.7451C20.2558 24.5703 20.3301 23.3384 20.7525 22.2057C21.1748 21.073 21.9261 20.0908 22.9108 19.3837C23.8956 18.6766 25.0695 18.2766 26.2833 18.2345C27.0861 18.198 27.8884 18.3194 28.644 18.5917C29.3996 18.864 30.0938 19.2819 30.6869 19.8215L40.5151 28.9147C41.6964 30.0259 42.3948 31.5519 42.4616 33.1677C42.4992 33.9664 42.3776 34.7645 42.1038 35.5162C41.83 36.2679 41.4093 36.9583 40.8661 37.5477C39.7579 38.7259 38.2271 39.4216 36.6062 39.4837C35.803 39.5229 35.0001 39.4028 34.2441 39.1303C33.4881 38.8579 32.7941 38.4386 32.2026 37.8968L22.3424 28.8036ZM6.25977 95.979C4.64523 96.0049 3.08505 95.399 1.91524 94.2919C0.745435 93.1847 0.0595934 91.6649 0.00541983 90.0597C-0.0287241 89.2528 0.0987188 88.4473 0.380341 87.6898C0.661963 86.9324 1.09215 86.2381 1.64589 85.6475C2.19963 85.0569 2.86588 84.5816 3.60591 84.2493C4.34594 83.917 5.145 83.7344 5.95663 83.7119L19.3748 83.2676C20.1847 83.2336 20.9933 83.3599 21.7539 83.639C22.5144 83.9181 23.2116 84.3446 23.8052 84.8937C24.3989 85.4428 24.877 86.1036 25.212 86.8378C25.547 87.5721 25.7322 88.3651 25.7568 89.171V89.2663V89.4884C25.7287 91.0555 25.0946 92.5516 23.9863 93.6658C22.878 94.78 21.3807 95.4266 19.8056 95.4712H19.5662L6.32359 95.8997L6.25977 95.979ZM175.383 77.0626H175.51C177.047 76.971 178.562 77.4583 179.754 78.4274C180.382 78.9309 180.903 79.5536 181.286 80.2592C181.67 80.9649 181.908 81.7394 181.988 82.5376C181.997 82.6061 181.997 82.6754 181.988 82.7439C182.087 84.315 181.571 85.8633 180.548 87.0643C179.525 88.2654 178.074 89.026 176.499 89.1869L163.145 90.5993C162.345 90.6788 161.538 90.6005 160.768 90.3691C159.999 90.1376 159.283 89.7574 158.662 89.2504C157.723 88.493 157.03 87.4761 156.67 86.3278C156.311 85.1795 156.301 83.9511 156.642 82.7973C156.984 81.6435 157.66 80.6159 158.588 79.8439C159.515 79.072 160.651 78.5902 161.853 78.4591C166.304 77.9672 170.788 77.4594 175.255 77.0309L175.383 77.0626ZM148.913 23.9475C149.355 23.278 149.925 22.7019 150.592 22.2523C151.258 21.8027 152.007 21.4885 152.796 21.3277C153.585 21.167 154.398 21.1629 155.188 21.3156C155.978 21.4683 156.73 21.7749 157.401 22.2178C158.076 22.6548 158.654 23.2233 159.101 23.8888C159.548 24.5543 159.854 25.3031 160.002 26.0899C160.315 27.6752 159.982 29.3191 159.077 30.6603L151.61 41.769C151.173 42.45 150.604 43.0369 149.935 43.4949C149.266 43.9528 148.512 44.2725 147.717 44.435C146.125 44.7438 144.475 44.419 143.122 43.5305C141.781 42.63 140.843 41.2478 140.505 39.6742C140.192 38.0889 140.525 36.445 141.43 35.1038L148.913 23.9952V23.9475ZM61.0013 128.337C56.3549 123.488 52.4665 117.973 49.4659 111.975C46.2046 105.265 44.5085 97.9095 44.5039 90.4565C44.6664 82.4454 46.7506 74.5889 50.5827 67.541C50.6156 67.4914 50.6424 67.4381 50.6625 67.3823C55.5214 59.0022 63.0419 52.4654 72.0422 48.7991C79.0872 45.9824 86.7103 44.8938 94.2675 45.6252C101.758 46.2947 109.009 48.5975 115.504 52.3698C123.821 57.142 130.33 64.5027 134.027 73.3174C136.377 78.91 137.587 84.9109 137.587 90.9722C137.587 97.0335 136.377 103.034 134.027 108.627C129.735 119.021 119.907 130.13 113.461 140.287C113.109 140.215 112.745 140.215 112.392 140.287L70.7817 146.396C68.6772 139.825 65.3605 133.701 61.0013 128.337Z"/>
</mask>
<path fill-rule="evenodd" clip-rule="evenodd" d="M121.008 43.0068C126.152 46.0178 130.788 49.8147 134.745 54.2582C138.62 58.6059 141.727 63.5744 143.935 68.9533C145.19 72.0379 146.177 75.2234 146.887 78.475C148.534 85.7776 148.664 93.3378 147.27 100.692C146.514 104.667 145.365 108.558 143.84 112.309L143.648 112.705C140.361 120.64 134.729 128.353 129.289 135.97C126.497 139.81 123.736 143.619 121.407 147.317C120.676 148.469 119.64 149.4 118.413 150.007C117.187 150.614 115.816 150.875 114.451 150.76L70.4786 157.267C68.6778 157.512 66.8487 157.099 65.3314 156.104C63.8141 155.108 62.7119 153.599 62.2299 151.855C61.126 148.675 59.771 145.587 58.1773 142.619C56.8468 140.078 55.2418 137.689 53.3908 135.494C51.1092 132.907 48.7958 130.273 46.5461 127.242C43.9634 123.801 41.7344 120.112 39.8929 116.228C37.9622 112.162 36.4597 107.907 35.4095 103.533C34.3711 99.1387 33.8623 94.6371 33.8938 90.1232C33.8943 85.418 34.4893 80.7316 35.6648 76.174C36.9404 71.3012 38.7712 66.5892 41.1214 62.1295L41.4405 61.574C44.4815 56.44 48.3211 51.8176 52.8164 47.8787C57.2985 43.9857 62.3989 40.8593 67.9098 38.6268L68.3566 38.4681C72.4631 36.8434 76.747 35.7036 81.1206 35.072C85.7565 34.4262 90.4524 34.3197 95.1131 34.7547C99.6669 35.1684 104.161 36.0784 108.515 37.4683C112.852 38.8498 117.021 40.7074 120.944 43.0068H121.008ZM114.626 181.484C112.213 185.619 108.76 189.059 104.606 191.466C101.1 193.496 97.1677 194.691 93.1187 194.957C89.071 195.201 85.0281 194.408 81.3758 192.656C78.7427 191.365 76.369 189.606 74.3716 187.466L114.722 181.484H114.626ZM118.471 159.028V161.647V162.567C118.599 164.284 118.599 166.008 118.471 167.725L117.689 171.518L68.8033 178.754L67.9418 176.802L66.0431 169.026V166.773L118.36 159.028H118.471ZM89.8958 5.98332C89.9252 4.37262 90.5946 2.83903 91.7577 1.71789C92.9207 0.596748 94.4828 -0.0207108 96.1023 0.000530436H96.5331C98.0761 0.13673 99.5099 0.849224 100.546 1.9946C101.582 3.13998 102.144 4.63322 102.117 6.17375C102.126 6.27938 102.126 6.38551 102.117 6.49114L101.782 19.52C101.791 19.6574 101.791 19.7952 101.782 19.9326C101.661 21.4731 100.956 22.9103 99.8095 23.9533C98.6631 24.9963 97.1612 25.5672 95.6077 25.5504H95.1769C93.6281 25.4257 92.1848 24.7204 91.1391 23.5772C90.0935 22.4341 89.5236 20.9384 89.5448 19.393C89.536 19.2927 89.536 19.1918 89.5448 19.0915L89.8639 5.99919L89.8958 5.98332ZM22.3424 28.8036C21.4497 27.9844 20.822 26.9199 20.5389 25.7451C20.2558 24.5703 20.3301 23.3384 20.7525 22.2057C21.1748 21.073 21.9261 20.0908 22.9108 19.3837C23.8956 18.6766 25.0695 18.2766 26.2833 18.2345C27.0861 18.198 27.8884 18.3194 28.644 18.5917C29.3996 18.864 30.0938 19.2819 30.6869 19.8215L40.5151 28.9147C41.6964 30.0259 42.3948 31.5519 42.4616 33.1677C42.4992 33.9664 42.3776 34.7645 42.1038 35.5162C41.83 36.2679 41.4093 36.9583 40.8661 37.5477C39.7579 38.7259 38.2271 39.4216 36.6062 39.4837C35.803 39.5229 35.0001 39.4028 34.2441 39.1303C33.4881 38.8579 32.7941 38.4386 32.2026 37.8968L22.3424 28.8036ZM6.25977 95.979C4.64523 96.0049 3.08505 95.399 1.91524 94.2919C0.745435 93.1847 0.0595934 91.6649 0.00541983 90.0597C-0.0287241 89.2528 0.0987188 88.4473 0.380341 87.6898C0.661963 86.9324 1.09215 86.2381 1.64589 85.6475C2.19963 85.0569 2.86588 84.5816 3.60591 84.2493C4.34594 83.917 5.145 83.7344 5.95663 83.7119L19.3748 83.2676C20.1847 83.2336 20.9933 83.3599 21.7539 83.639C22.5144 83.9181 23.2116 84.3446 23.8052 84.8937C24.3989 85.4428 24.877 86.1036 25.212 86.8378C25.547 87.5721 25.7322 88.3651 25.7568 89.171V89.2663V89.4884C25.7287 91.0555 25.0946 92.5516 23.9863 93.6658C22.878 94.78 21.3807 95.4266 19.8056 95.4712H19.5662L6.32359 95.8997L6.25977 95.979ZM175.383 77.0626H175.51C177.047 76.971 178.562 77.4583 179.754 78.4274C180.382 78.9309 180.903 79.5536 181.286 80.2592C181.67 80.9649 181.908 81.7394 181.988 82.5376C181.997 82.6061 181.997 82.6754 181.988 82.7439C182.087 84.315 181.571 85.8633 180.548 87.0643C179.525 88.2654 178.074 89.026 176.499 89.1869L163.145 90.5993C162.345 90.6788 161.538 90.6005 160.768 90.3691C159.999 90.1376 159.283 89.7574 158.662 89.2504C157.723 88.493 157.03 87.4761 156.67 86.3278C156.311 85.1795 156.301 83.9511 156.642 82.7973C156.984 81.6435 157.66 80.6159 158.588 79.8439C159.515 79.072 160.651 78.5902 161.853 78.4591C166.304 77.9672 170.788 77.4594 175.255 77.0309L175.383 77.0626ZM148.913 23.9475C149.355 23.278 149.925 22.7019 150.592 22.2523C151.258 21.8027 152.007 21.4885 152.796 21.3277C153.585 21.167 154.398 21.1629 155.188 21.3156C155.978 21.4683 156.73 21.7749 157.401 22.2178C158.076 22.6548 158.654 23.2233 159.101 23.8888C159.548 24.5543 159.854 25.3031 160.002 26.0899C160.315 27.6752 159.982 29.3191 159.077 30.6603L151.61 41.769C151.173 42.45 150.604 43.0369 149.935 43.4949C149.266 43.9528 148.512 44.2725 147.717 44.435C146.125 44.7438 144.475 44.419 143.122 43.5305C141.781 42.63 140.843 41.2478 140.505 39.6742C140.192 38.0889 140.525 36.445 141.43 35.1038L148.913 23.9952V23.9475ZM61.0013 128.337C56.3549 123.488 52.4665 117.973 49.4659 111.975C46.2046 105.265 44.5085 97.9095 44.5039 90.4565C44.6664 82.4454 46.7506 74.5889 50.5827 67.541C50.6156 67.4914 50.6424 67.4381 50.6625 67.3823C55.5214 59.0022 63.0419 52.4654 72.0422 48.7991C79.0872 45.9824 86.7103 44.8938 94.2675 45.6252C101.758 46.2947 109.009 48.5975 115.504 52.3698C123.821 57.142 130.33 64.5027 134.027 73.3174C136.377 78.91 137.587 84.9109 137.587 90.9722C137.587 97.0335 136.377 103.034 134.027 108.627C129.735 119.021 119.907 130.13 113.461 140.287C113.109 140.215 112.745 140.215 112.392 140.287L70.7817 146.396C68.6772 139.825 65.3605 133.701 61.0013 128.337Z" fill="url(#paint0_linear_83_93)" stroke="url(#paint1_diamond_83_93)" stroke-width="2" mask="url(#path-1-inside-1_83_93)"/>
<defs>
<linearGradient id="paint0_linear_83_93" x1="-90.1574" y1="-536.25" x2="382.848" y2="-423.365" gradientUnits="userSpaceOnUse">
<stop offset="0.336017" stop-color="#00B2FF"/>
<stop offset="1" stop-color="#031245" stop-opacity="0"/>
</linearGradient>
<radialGradient id="paint1_diamond_83_93" cx="0" cy="0" r="1" gradientUnits="userSpaceOnUse" gradientTransform="translate(77.043 76.4706) rotate(91.7107) scale(336.621 214.078)">
<stop stop-color="#24CAFF"/>
<stop offset="1" stop-color="#0D7798" stop-opacity="0"/>
</radialGradient>
</defs>
</svg>
