<svg width="184" height="126" viewBox="0 0 184 126" fill="none" xmlns="http://www.w3.org/2000/svg">
<path d="M182.559 64.5784L182.558 64.5793C172.289 83.3038 158.744 98.7008 143.065 109.313C127.762 119.67 110.399 125.5 92 125.5C73.6014 125.5 56.2381 119.67 40.9494 109.328C25.2415 98.7008 11.711 83.3039 1.44165 64.5793L1.44112 64.5784L0.570406 62.999L1.44165 61.4056C11.711 42.6811 25.2415 27.2842 40.9343 16.6719C56.2381 6.32994 73.6015 0.5 92 0.5C110.398 0.5 127.747 6.32987 143.066 16.672C158.759 27.2844 172.289 42.6811 182.558 61.4056L183.43 62.999L182.559 64.5784ZM163.651 63.2466L163.791 63L163.651 62.7534C155.383 48.1682 144.687 36.1657 132.365 27.8298L132.085 28.244L132.365 27.8298C120.238 19.6286 106.515 14.9906 92 14.9906C77.4998 14.9906 63.7773 19.6286 51.6496 27.8298L51.6495 27.8298C39.3282 36.1657 28.632 48.1681 20.3491 62.7531L20.209 62.9998L20.3489 63.2466C28.6171 77.832 39.3285 89.8346 51.6499 98.1554C63.7775 106.356 77.4999 110.994 92 110.994C106.515 110.994 120.223 106.356 132.365 98.1553C144.687 89.8345 155.383 77.8318 163.651 63.2466ZM59.6172 65.3762C59.6172 47.9721 73.6675 33.8553 91.0028 33.8423L96.2775 34.3487C94.322 37.566 93.1771 41.3754 93.1771 45.4641C93.1771 56.9718 102.158 66.3274 113.293 66.3274C116.572 66.3274 119.67 65.5178 122.406 64.0668C122.425 64.5011 122.436 64.9363 122.436 65.3762C122.436 82.8035 108.373 96.9252 91.0267 96.9252C73.6805 96.9252 59.6172 82.8035 59.6172 65.3762Z" fill="url(#paint0_linear_87_18)" stroke="url(#paint1_diamond_87_18)"/>
<defs>
<linearGradient id="paint0_linear_87_18" x1="-91.1482" y1="-346.5" x2="352.441" y2="-180.862" gradientUnits="userSpaceOnUse">
<stop offset="0.336017" stop-color="#00B2FF"/>
<stop offset="1" stop-color="#031245" stop-opacity="0"/>
</linearGradient>
<radialGradient id="paint1_diamond_87_18" cx="0" cy="0" r="1" gradientUnits="userSpaceOnUse" gradientTransform="translate(77.8896 49.4118) rotate(92.6754) scale(217.649 216.291)">
<stop stop-color="#24CAFF"/>
<stop offset="1" stop-color="#0D7798" stop-opacity="0"/>
</radialGradient>
</defs>
</svg>
