<svg width="962" height="1246" viewBox="0 0 962 1246" fill="none" xmlns="http://www.w3.org/2000/svg">
<g style="mix-blend-mode:hard-light" filter="url(#filter0_f_196_3430)">
<ellipse rx="207.878" ry="63.3605" transform="matrix(0.0820329 -0.99663 0.997383 0.0722973 480.642 623.11)" fill="#008DC8" fill-opacity="0.91"/>
</g>
<g style="mix-blend-mode:hard-light" filter="url(#filter1_f_196_3430)">
<ellipse rx="207.878" ry="63.3605" transform="matrix(0.0820329 -0.99663 0.997383 0.0722973 480.642 623.11)" fill="#008DC8" fill-opacity="0.91"/>
</g>
<g style="mix-blend-mode:color-dodge">
<path d="M525.95 842.137L511.533 806.169L528.356 829.385M485.295 778.058L514.775 827.106L452.532 744.856L485.295 778.058ZM485.295 778.058L511.523 806.168M485.295 778.058L461.603 733.735M511.523 806.168L461.603 733.735M511.523 806.168L491.42 766.785M511.523 806.168L528.355 829.386M461.603 733.735L491.42 766.785M491.42 766.785L528.355 829.386M491.42 766.785L513.447 793.344M491.42 766.785L486.243 736.095M535.585 842.461L528.356 829.385M535.585 842.461L513.447 793.344M535.585 842.461L534.263 815.604M528.356 829.385L513.447 793.344M528.356 829.385L535.595 842.462M513.447 793.344L528.355 829.386M513.447 793.344L534.263 815.604M513.447 793.344L486.243 736.095M513.447 793.344L501.646 759.136M552.576 830.882L534.262 815.605L516.396 779.221M552.576 830.882L516.396 779.221M552.576 830.882L539.645 798.716M534.263 815.604L552.577 830.881L539.645 798.716M534.263 815.604L513.447 793.345L501.646 759.136M534.263 815.604L501.646 759.136M534.263 815.604L516.396 779.221M516.396 779.221L501.646 759.136M516.396 779.221L539.645 798.716M516.396 779.221L506.942 743.203M501.646 759.136L486.243 736.095M501.646 759.136L516.397 779.22M501.646 759.136L505.684 732.743M501.646 759.136L501.476 716.966M486.243 736.095L458.626 703.228M486.243 736.095L480.629 688.027M486.243 736.095L501.476 716.966M516.397 779.22L505.684 732.743M516.397 779.22L506.942 743.203L503.957 738.254M505.684 732.743L503.957 738.254M505.684 732.743L501.476 716.966M505.684 732.743L524.336 712.128M503.957 738.254L506.942 743.202M539.645 798.716L566.086 818.794L588.588 839.672M539.645 798.716L506.942 743.203M539.645 798.716L530.934 765.172L506.942 743.203M566.086 818.793L539.645 798.715L530.934 765.17M566.086 818.793L530.934 765.17M566.086 818.793L566.111 789.163L530.934 765.17M530.934 765.17L506.942 743.202M530.934 765.17L527.297 720.329M530.934 765.17L566.111 789.164M530.934 765.17L546.068 735.692M506.942 743.202L527.297 720.329M506.942 743.202L524.336 712.128M527.297 720.329L523.535 714.315L524.336 712.128M527.297 720.329L546.068 735.692M527.297 720.329L546.068 735.691M527.297 720.329L562.711 699.838M485.295 778.057L452.533 744.855L422.033 693.642M485.295 778.057L422.033 693.642M485.295 778.057L461.603 733.734L422.033 693.642M422.033 693.644L461.603 733.736M422.033 693.644L418.03 661.348M422.033 693.644L381.53 653.618M422.033 693.644L374.432 618.937M422.033 693.644L452.532 744.857L381.53 653.618M461.603 733.736L418.03 661.348M461.603 733.736L491.42 766.786M461.603 733.736L458.626 703.229M461.603 733.736L458.626 703.228M418.03 661.348L374.432 618.937M418.03 661.348L458.626 703.228M418.03 661.348L443.55 648.085M381.53 653.618L374.432 618.937M374.432 618.936L418.03 661.348M374.432 618.936L401.775 606.741M374.432 618.936L348.42 591.302M374.432 618.936L381.531 653.617L348.42 591.302M418.03 661.348L401.775 606.741M418.03 661.348L443.55 648.085M401.775 606.741L371.527 572.385M401.775 606.741L413.574 562.602M401.775 606.741L443.55 648.085M401.775 606.741L449.413 602.312M348.42 591.302L358.339 549.657M348.42 591.302L371.527 572.385M374.432 618.939L348.42 591.304L371.527 572.387M374.432 618.939L371.527 572.387M374.432 618.939L401.775 606.743L371.527 572.387M371.527 572.385L413.574 562.602M371.527 572.385L358.339 549.657M371.527 572.385L391.407 532.315M413.574 562.602L391.407 532.315M413.574 562.602L449.413 602.312M413.574 562.602L459.84 552.687M358.339 549.657L391.407 532.315M358.339 549.657L387.028 514.207M391.407 532.315L387.028 514.207M391.407 532.315L413.574 562.603M391.407 532.315L432.738 518.484M387.028 514.207L423.555 481.685M387.028 514.207L420.543 494.708M491.42 766.786L458.626 703.229M491.42 766.786L486.243 736.096L458.626 703.229M458.626 703.228L480.629 688.027M458.626 703.228L443.55 648.085M480.629 688.027L443.55 648.085M480.629 688.027L501.479 716.955M480.629 688.027L521.215 682.051M480.629 688.027L501.476 716.966M413.574 562.603L432.738 518.484M413.574 562.603L459.84 552.687M432.738 518.484L459.84 552.687M432.738 518.484L420.543 494.708M432.738 518.484L454.972 475.026M432.738 518.484L471.434 501.287M459.84 552.687L497.243 594.09M459.84 552.687L499.935 536.217M459.84 552.687L449.413 602.312M443.55 648.087L480.629 688.028M443.55 648.087L490.477 645.822M443.55 648.087L401.775 606.742L449.413 602.313M443.55 648.087L449.413 602.313M480.629 688.028L490.477 645.822M480.629 688.028L521.214 682.052L490.477 645.822M490.477 645.822L449.413 602.313M449.413 602.312L490.477 645.82M449.413 602.312L497.24 594.099M449.413 602.312L459.84 552.687M490.477 645.82L497.24 594.099M490.477 645.82L535.979 636.623M497.24 594.099L459.84 552.687M497.24 594.099L535.979 636.623M497.243 594.09L499.935 536.217M497.243 594.09L535.981 636.613L535.331 576.125M497.243 594.09L535.331 576.125M499.935 536.217L471.434 501.287M499.935 536.217L500.924 476.714M499.935 536.217L535.331 576.125M499.935 536.217L527.733 509.608M459.84 552.687L432.738 518.483L471.435 501.286M459.84 552.687L471.435 501.286M459.84 552.687L499.935 536.215L471.435 501.286M391.407 532.316L387.028 514.209L420.543 494.71M391.407 532.316L420.543 494.71M391.407 532.316L432.738 518.485L420.543 494.71M420.543 494.71L423.554 481.687L451.335 458.25M420.543 494.71L451.335 458.25M420.543 494.71L454.972 475.027L451.335 458.25M420.543 494.708L454.972 475.026M420.543 494.708L423.555 481.685M454.972 475.026L471.434 501.287M454.972 475.026L483.266 450.714M423.555 481.685L456.997 448.867M423.555 481.685L451.335 458.249M454.972 475.028L451.335 458.251L476.038 432.894M454.972 475.028L476.038 432.894M454.972 475.028L483.266 450.715L476.038 432.894M451.335 458.249L456.997 448.867M451.335 458.249L476.224 421.65M451.335 458.249L476.039 432.892M456.997 448.867L476.224 421.65M476.224 421.65L476.039 432.892M476.224 421.65L491.709 392.758M476.039 432.892L491.709 392.758M476.039 432.892L483.266 450.713M476.039 432.892L494.412 403.576M491.709 392.758L494.412 403.576M471.434 501.287L500.924 476.714M471.434 501.287L483.266 450.714M500.924 476.714L483.266 450.714M500.924 476.714L483.266 450.713M500.924 476.714L502.634 420.14M500.924 476.714L527.733 509.608M500.924 476.714L518.901 443.584M483.266 450.713L502.634 420.14M483.266 450.713L494.412 403.576M502.634 420.14L494.412 403.576M502.634 420.14L507.496 371.066M502.634 420.14L518.901 443.584M502.634 420.14L514.608 384.545M494.412 403.576L507.496 371.066M507.496 371.066L514.608 384.545M505.683 732.744L501.476 716.967L531.956 704.714M505.683 732.744L531.956 704.714M505.683 732.744L524.336 712.13M531.956 704.714L530.514 708.682L524.336 712.13M501.479 716.955L521.215 682.051M501.479 716.955L531.967 704.714M521.215 682.051L531.967 704.714M521.215 682.051L562.78 671.297M531.967 704.714L562.78 671.297M531.967 704.714L530.515 708.68L524.336 712.128M531.967 704.714L562.809 687.163M531.967 704.714L562.809 687.163L565.869 681.736L562.78 671.297M562.78 671.297L535.978 636.624M562.78 671.297L568.178 614.458M562.78 671.297L521.214 682.052M562.78 671.297L584.257 641.486M521.214 682.052L490.477 645.821L535.978 636.624M521.214 682.052L535.978 636.624M535.978 636.624L568.178 614.458M568.178 614.458L535.331 576.126L558.041 545.277M568.178 614.458L558.041 545.277M568.178 614.458L580.703 576.162M568.178 614.458L584.257 641.486M535.331 576.125L568.179 614.457M535.331 576.125L535.979 636.623M535.331 576.125L527.733 509.608M535.331 576.125L558.043 545.266L527.733 509.608M568.179 614.457L535.979 636.623M568.179 614.457L584.257 641.486M568.179 614.457L580.704 576.161M524.336 712.128L562.809 687.163M524.336 712.128L558.309 693.155M524.336 712.13L523.534 714.317L527.297 720.331M524.336 712.13L558.309 693.157M527.297 720.331L558.309 693.157M527.297 720.331L562.711 699.841L558.309 693.157M558.309 693.157L562.711 699.84M558.309 693.157L594.722 668.447M562.809 687.163L558.309 693.155M562.809 687.163L590.798 658.658M562.809 687.163L565.87 681.735L562.781 671.296L584.257 641.485M562.809 687.163L584.257 641.485M558.309 693.155L590.798 658.658M558.309 693.155L594.722 668.446M558.041 545.277L580.703 576.162M580.703 576.162L596.96 600.85M580.703 576.162L586.217 531.037M590.798 658.658L584.257 641.485M590.798 658.658L594.722 668.446M590.797 658.659L584.256 641.487L596.96 600.85M590.797 658.659L596.96 600.85M590.797 658.659L594.722 668.447M590.797 658.659L612.993 621.018M590.797 658.659L612.993 621.017M596.96 600.85L586.217 531.037M596.96 600.85L612.993 621.018M596.96 600.85L609.977 558.039M596.96 600.85L612.993 621.017M586.217 531.037L563.695 501.586L568.515 457.341M586.217 531.037L568.515 457.341M586.217 531.037L609.978 558.038L596.961 600.849M586.217 531.037L596.961 600.849M586.217 531.037L596.543 488.419M584.257 641.486L580.704 576.161M584.257 641.486L596.961 600.849M580.704 576.161L596.961 600.849M527.733 509.608L518.901 443.584M527.733 509.608L541.406 472.173M558.043 545.267L527.733 509.61L541.406 472.174M558.043 545.267L541.406 472.174M558.043 545.267L563.694 501.586L541.406 472.174M518.901 443.584L541.406 472.173M518.901 443.584L527.36 403.599M541.406 472.173L527.36 403.599M541.406 472.173L563.695 501.584M541.406 472.173L544.335 427.192M541.406 472.173L544.334 427.193M527.36 403.599L514.608 384.545M527.36 403.599L524.981 348.034M527.36 403.599L544.334 427.193M527.36 403.599L533.696 362.421M527.36 403.599L533.696 362.42L524.981 348.034M518.901 443.586L502.633 420.142L514.607 384.547M518.901 443.586L514.607 384.547M518.901 443.586L527.36 403.6L514.607 384.547M514.608 384.545L524.981 348.034M580.704 576.16L558.043 545.265L563.695 501.584M580.704 576.16L563.695 501.584M580.704 576.16L586.218 531.036M563.695 501.584L586.218 531.036M563.695 501.584L544.335 427.192M563.695 501.584L568.515 457.34L544.335 427.192M568.515 457.341L544.334 427.193M568.515 457.341L553.787 387.848M568.515 457.341L596.543 488.419M568.515 457.341L581.487 418.93M586.218 531.036L609.978 558.036M586.218 531.036L596.543 488.419M544.334 427.193L553.787 387.848M544.334 427.193L533.696 362.421M553.787 387.848L533.696 362.421M553.787 387.848L551.959 330.63M553.787 387.848L581.487 418.93M553.787 387.848L573.58 356.318M533.696 362.421L551.959 330.63M551.959 330.63L573.58 356.318M588.588 839.67L566.086 818.792L566.112 789.162M588.588 839.67L566.112 789.162M588.588 839.67L595.88 811.275L566.112 789.162M566.111 789.164L595.88 811.277M566.111 789.164L577.212 758.59M566.111 789.164L546.068 735.692M595.88 811.277L577.212 758.59M595.88 811.277L609.14 782.219M577.212 758.59L546.068 735.692M577.212 758.59L577.937 711.498M577.212 758.59L601.775 729.358M577.212 758.59L609.14 782.219M546.068 735.692L577.937 711.498M577.937 711.498L601.775 729.358M577.937 711.498L562.711 699.84M577.937 711.498L600.98 675.638M577.937 711.498L613.11 685.615M601.775 729.358L609.14 782.219M601.775 729.358L613.11 685.615M546.068 735.691L562.711 699.838M546.068 735.691L577.938 711.496L562.711 699.838M562.711 699.84L600.98 675.638M562.711 699.84L594.722 668.447M600.98 675.638L594.722 668.447M600.98 675.638L594.722 668.446M600.98 675.638L626.283 635.585M600.98 675.638L613.11 685.615M600.98 675.638L634.058 644.639L613.11 685.615M600.98 675.638L634.059 644.638L626.283 635.585M594.722 668.447L612.993 621.018M594.722 668.447L626.283 635.587L612.993 621.018M594.722 668.446L626.283 635.585M626.283 635.585L612.993 621.017M626.283 635.585L631.506 579.924L612.993 621.017M612.993 621.018L609.977 558.039M612.993 621.018L631.505 579.925L609.977 558.039M609.978 558.036L631.506 579.923M609.978 558.036L624.01 516.214M609.978 558.036L596.543 488.419M631.506 579.923L624.01 516.214M631.506 579.923L647.265 538.32L624.01 516.214M624.01 516.214L596.543 488.419M624.01 516.216L596.543 488.42L611.448 449.905M624.01 516.216L611.448 449.905M624.01 516.216L647.265 538.322M624.01 516.216L639.079 476.772M611.448 449.905L581.487 418.93M611.448 449.905L601.451 386.389M611.448 449.905L639.079 476.772M611.448 449.905L630.013 415.296M596.543 488.421L568.515 457.343L581.487 418.931M596.543 488.421L581.487 418.931M596.543 488.421L611.448 449.906L581.487 418.931M581.487 418.93L601.451 386.389M601.451 386.389L573.58 356.318M601.451 386.389L601.656 331.089M601.451 386.389L630.013 415.296M601.451 386.389L626.561 357.965M581.487 418.929L553.788 387.847L573.58 356.317M581.487 418.929L573.58 356.317M581.487 418.929L601.451 386.388L573.58 356.317M573.58 356.318L601.656 331.089M601.656 331.089L626.561 357.965M647.265 538.322L639.079 476.772M647.265 538.322L660.495 497.346M639.079 476.772L660.495 497.346M639.079 476.772L654.455 439.278M639.079 476.772L630.013 415.296M660.495 497.346L654.455 439.278M660.495 497.346L670.679 456.396L654.455 439.278M654.455 439.278L630.013 415.296M654.455 439.278L650.586 382.622M654.455 439.278L668.696 401.554L650.586 382.622M630.013 415.296L650.586 382.622M630.013 415.296L626.561 357.965M650.586 382.622L626.561 357.965M650.586 382.621L626.562 357.964L654.218 330.132M650.586 382.621L654.218 330.132M650.586 382.621L668.696 401.553M650.586 382.621L670.781 348.139M654.218 330.132L670.781 348.139M670.679 456.394L654.455 439.276L668.696 401.553M670.679 456.394L668.696 401.553M670.679 456.394L678.635 413.348M668.696 401.553L678.635 413.348M668.696 401.553L681.393 359.951M668.696 401.553L670.781 348.139M678.635 413.348L681.393 359.951M681.393 359.951L670.781 348.139M476.224 421.648L476.49 412.517L456.997 448.866L476.224 421.648Z" stroke="white" stroke-width="0.25" stroke-linejoin="round"/>
</g>
<g style="mix-blend-mode:color-dodge">
<path d="M525.95 842.137L511.533 806.169L528.356 829.385M485.295 778.058L514.775 827.106L452.532 744.856L485.295 778.058ZM485.295 778.058L511.523 806.168M485.295 778.058L461.603 733.735M511.523 806.168L461.603 733.735M511.523 806.168L491.42 766.785M511.523 806.168L528.355 829.386M461.603 733.735L491.42 766.785M491.42 766.785L528.355 829.386M491.42 766.785L513.447 793.344M491.42 766.785L486.243 736.095M535.585 842.461L528.356 829.385M535.585 842.461L513.447 793.344M535.585 842.461L534.263 815.604M528.356 829.385L513.447 793.344M528.356 829.385L535.595 842.462M513.447 793.344L528.355 829.386M513.447 793.344L534.263 815.604M513.447 793.344L486.243 736.095M513.447 793.344L501.646 759.136M552.576 830.882L534.262 815.605L516.396 779.221M552.576 830.882L516.396 779.221M552.576 830.882L539.645 798.716M534.263 815.604L552.577 830.881L539.645 798.716M534.263 815.604L513.447 793.345L501.646 759.136M534.263 815.604L501.646 759.136M534.263 815.604L516.396 779.221M516.396 779.221L501.646 759.136M516.396 779.221L539.645 798.716M516.396 779.221L506.942 743.203M501.646 759.136L486.243 736.095M501.646 759.136L516.397 779.22M501.646 759.136L505.684 732.743M501.646 759.136L501.476 716.966M486.243 736.095L458.626 703.228M486.243 736.095L480.629 688.027M486.243 736.095L501.476 716.966M516.397 779.22L505.684 732.743M516.397 779.22L506.942 743.203L503.957 738.254M505.684 732.743L503.957 738.254M505.684 732.743L501.476 716.966M505.684 732.743L524.336 712.128M503.957 738.254L506.942 743.202M539.645 798.716L566.086 818.794L588.588 839.672M539.645 798.716L506.942 743.203M539.645 798.716L530.934 765.172L506.942 743.203M566.086 818.793L539.645 798.715L530.934 765.17M566.086 818.793L530.934 765.17M566.086 818.793L566.111 789.163L530.934 765.17M530.934 765.17L506.942 743.202M530.934 765.17L527.297 720.329M530.934 765.17L566.111 789.164M530.934 765.17L546.068 735.692M506.942 743.202L527.297 720.329M506.942 743.202L524.336 712.128M527.297 720.329L523.535 714.315L524.336 712.128M527.297 720.329L546.068 735.692M527.297 720.329L546.068 735.691M527.297 720.329L562.711 699.838M485.295 778.057L452.533 744.855L422.033 693.642M485.295 778.057L422.033 693.642M485.295 778.057L461.603 733.734L422.033 693.642M422.033 693.644L461.603 733.736M422.033 693.644L418.03 661.348M422.033 693.644L381.53 653.618M422.033 693.644L374.432 618.937M422.033 693.644L452.532 744.857L381.53 653.618M461.603 733.736L418.03 661.348M461.603 733.736L491.42 766.786M461.603 733.736L458.626 703.229M461.603 733.736L458.626 703.228M418.03 661.348L374.432 618.937M418.03 661.348L458.626 703.228M418.03 661.348L443.55 648.085M381.53 653.618L374.432 618.937M374.432 618.936L418.03 661.348M374.432 618.936L401.775 606.741M374.432 618.936L348.42 591.302M374.432 618.936L381.531 653.617L348.42 591.302M418.03 661.348L401.775 606.741M418.03 661.348L443.55 648.085M401.775 606.741L371.527 572.385M401.775 606.741L413.574 562.602M401.775 606.741L443.55 648.085M401.775 606.741L449.413 602.312M348.42 591.302L358.339 549.657M348.42 591.302L371.527 572.385M374.432 618.939L348.42 591.304L371.527 572.387M374.432 618.939L371.527 572.387M374.432 618.939L401.775 606.743L371.527 572.387M371.527 572.385L413.574 562.602M371.527 572.385L358.339 549.657M371.527 572.385L391.407 532.315M413.574 562.602L391.407 532.315M413.574 562.602L449.413 602.312M413.574 562.602L459.84 552.687M358.339 549.657L391.407 532.315M358.339 549.657L387.028 514.207M391.407 532.315L387.028 514.207M391.407 532.315L413.574 562.603M391.407 532.315L432.738 518.484M387.028 514.207L423.555 481.685M387.028 514.207L420.543 494.708M491.42 766.786L458.626 703.229M491.42 766.786L486.243 736.096L458.626 703.229M458.626 703.228L480.629 688.027M458.626 703.228L443.55 648.085M480.629 688.027L443.55 648.085M480.629 688.027L501.479 716.955M480.629 688.027L521.215 682.051M480.629 688.027L501.476 716.966M413.574 562.603L432.738 518.484M413.574 562.603L459.84 552.687M432.738 518.484L459.84 552.687M432.738 518.484L420.543 494.708M432.738 518.484L454.972 475.026M432.738 518.484L471.434 501.287M459.84 552.687L497.243 594.09M459.84 552.687L499.935 536.217M459.84 552.687L449.413 602.312M443.55 648.087L480.629 688.028M443.55 648.087L490.477 645.822M443.55 648.087L401.775 606.742L449.413 602.313M443.55 648.087L449.413 602.313M480.629 688.028L490.477 645.822M480.629 688.028L521.214 682.052L490.477 645.822M490.477 645.822L449.413 602.313M449.413 602.312L490.477 645.82M449.413 602.312L497.24 594.099M449.413 602.312L459.84 552.687M490.477 645.82L497.24 594.099M490.477 645.82L535.979 636.623M497.24 594.099L459.84 552.687M497.24 594.099L535.979 636.623M497.243 594.09L499.935 536.217M497.243 594.09L535.981 636.613L535.331 576.125M497.243 594.09L535.331 576.125M499.935 536.217L471.434 501.287M499.935 536.217L500.924 476.714M499.935 536.217L535.331 576.125M499.935 536.217L527.733 509.608M459.84 552.687L432.738 518.483L471.435 501.286M459.84 552.687L471.435 501.286M459.84 552.687L499.935 536.215L471.435 501.286M391.407 532.316L387.028 514.209L420.543 494.71M391.407 532.316L420.543 494.71M391.407 532.316L432.738 518.485L420.543 494.71M420.543 494.71L423.554 481.687L451.335 458.25M420.543 494.71L451.335 458.25M420.543 494.71L454.972 475.027L451.335 458.25M420.543 494.708L454.972 475.026M420.543 494.708L423.555 481.685M454.972 475.026L471.434 501.287M454.972 475.026L483.266 450.714M423.555 481.685L456.997 448.867M423.555 481.685L451.335 458.249M454.972 475.028L451.335 458.251L476.038 432.894M454.972 475.028L476.038 432.894M454.972 475.028L483.266 450.715L476.038 432.894M451.335 458.249L456.997 448.867M451.335 458.249L476.224 421.65M451.335 458.249L476.039 432.892M456.997 448.867L476.224 421.65M476.224 421.65L476.039 432.892M476.224 421.65L491.709 392.758M476.039 432.892L491.709 392.758M476.039 432.892L483.266 450.713M476.039 432.892L494.412 403.576M491.709 392.758L494.412 403.576M471.434 501.287L500.924 476.714M471.434 501.287L483.266 450.714M500.924 476.714L483.266 450.714M500.924 476.714L483.266 450.713M500.924 476.714L502.634 420.14M500.924 476.714L527.733 509.608M500.924 476.714L518.901 443.584M483.266 450.713L502.634 420.14M483.266 450.713L494.412 403.576M502.634 420.14L494.412 403.576M502.634 420.14L507.496 371.066M502.634 420.14L518.901 443.584M502.634 420.14L514.608 384.545M494.412 403.576L507.496 371.066M507.496 371.066L514.608 384.545M505.683 732.744L501.476 716.967L531.956 704.714M505.683 732.744L531.956 704.714M505.683 732.744L524.336 712.13M531.956 704.714L530.514 708.682L524.336 712.13M501.479 716.955L521.215 682.051M501.479 716.955L531.967 704.714M521.215 682.051L531.967 704.714M521.215 682.051L562.78 671.297M531.967 704.714L562.78 671.297M531.967 704.714L530.515 708.68L524.336 712.128M531.967 704.714L562.809 687.163M531.967 704.714L562.809 687.163L565.869 681.736L562.78 671.297M562.78 671.297L535.978 636.624M562.78 671.297L568.178 614.458M562.78 671.297L521.214 682.052M562.78 671.297L584.257 641.486M521.214 682.052L490.477 645.821L535.978 636.624M521.214 682.052L535.978 636.624M535.978 636.624L568.178 614.458M568.178 614.458L535.331 576.126L558.041 545.277M568.178 614.458L558.041 545.277M568.178 614.458L580.703 576.162M568.178 614.458L584.257 641.486M535.331 576.125L568.179 614.457M535.331 576.125L535.979 636.623M535.331 576.125L527.733 509.608M535.331 576.125L558.043 545.266L527.733 509.608M568.179 614.457L535.979 636.623M568.179 614.457L584.257 641.486M568.179 614.457L580.704 576.161M524.336 712.128L562.809 687.163M524.336 712.128L558.309 693.155M524.336 712.13L523.534 714.317L527.297 720.331M524.336 712.13L558.309 693.157M527.297 720.331L558.309 693.157M527.297 720.331L562.711 699.841L558.309 693.157M558.309 693.157L562.711 699.84M558.309 693.157L594.722 668.447M562.809 687.163L558.309 693.155M562.809 687.163L590.798 658.658M562.809 687.163L565.87 681.735L562.781 671.296L584.257 641.485M562.809 687.163L584.257 641.485M558.309 693.155L590.798 658.658M558.309 693.155L594.722 668.446M558.041 545.277L580.703 576.162M580.703 576.162L596.96 600.85M580.703 576.162L586.217 531.037M590.798 658.658L584.257 641.485M590.798 658.658L594.722 668.446M590.797 658.659L584.256 641.487L596.96 600.85M590.797 658.659L596.96 600.85M590.797 658.659L594.722 668.447M590.797 658.659L612.993 621.018M590.797 658.659L612.993 621.017M596.96 600.85L586.217 531.037M596.96 600.85L612.993 621.018M596.96 600.85L609.977 558.039M596.96 600.85L612.993 621.017M586.217 531.037L563.695 501.586L568.515 457.341M586.217 531.037L568.515 457.341M586.217 531.037L609.978 558.038L596.961 600.849M586.217 531.037L596.961 600.849M586.217 531.037L596.543 488.419M584.257 641.486L580.704 576.161M584.257 641.486L596.961 600.849M580.704 576.161L596.961 600.849M527.733 509.608L518.901 443.584M527.733 509.608L541.406 472.173M558.043 545.267L527.733 509.61L541.406 472.174M558.043 545.267L541.406 472.174M558.043 545.267L563.694 501.586L541.406 472.174M518.901 443.584L541.406 472.173M518.901 443.584L527.36 403.599M541.406 472.173L527.36 403.599M541.406 472.173L563.695 501.584M541.406 472.173L544.335 427.192M541.406 472.173L544.334 427.193M527.36 403.599L514.608 384.545M527.36 403.599L524.981 348.034M527.36 403.599L544.334 427.193M527.36 403.599L533.696 362.421M527.36 403.599L533.696 362.42L524.981 348.034M518.901 443.586L502.633 420.142L514.607 384.547M518.901 443.586L514.607 384.547M518.901 443.586L527.36 403.6L514.607 384.547M514.608 384.545L524.981 348.034M580.704 576.16L558.043 545.265L563.695 501.584M580.704 576.16L563.695 501.584M580.704 576.16L586.218 531.036M563.695 501.584L586.218 531.036M563.695 501.584L544.335 427.192M563.695 501.584L568.515 457.34L544.335 427.192M568.515 457.341L544.334 427.193M568.515 457.341L553.787 387.848M568.515 457.341L596.543 488.419M568.515 457.341L581.487 418.93M586.218 531.036L609.978 558.036M586.218 531.036L596.543 488.419M544.334 427.193L553.787 387.848M544.334 427.193L533.696 362.421M553.787 387.848L533.696 362.421M553.787 387.848L551.959 330.63M553.787 387.848L581.487 418.93M553.787 387.848L573.58 356.318M533.696 362.421L551.959 330.63M551.959 330.63L573.58 356.318M588.588 839.67L566.086 818.792L566.112 789.162M588.588 839.67L566.112 789.162M588.588 839.67L595.88 811.275L566.112 789.162M566.111 789.164L595.88 811.277M566.111 789.164L577.212 758.59M566.111 789.164L546.068 735.692M595.88 811.277L577.212 758.59M595.88 811.277L609.14 782.219M577.212 758.59L546.068 735.692M577.212 758.59L577.937 711.498M577.212 758.59L601.775 729.358M577.212 758.59L609.14 782.219M546.068 735.692L577.937 711.498M577.937 711.498L601.775 729.358M577.937 711.498L562.711 699.84M577.937 711.498L600.98 675.638M577.937 711.498L613.11 685.615M601.775 729.358L609.14 782.219M601.775 729.358L613.11 685.615M546.068 735.691L562.711 699.838M546.068 735.691L577.938 711.496L562.711 699.838M562.711 699.84L600.98 675.638M562.711 699.84L594.722 668.447M600.98 675.638L594.722 668.447M600.98 675.638L594.722 668.446M600.98 675.638L626.283 635.585M600.98 675.638L613.11 685.615M600.98 675.638L634.058 644.639L613.11 685.615M600.98 675.638L634.059 644.638L626.283 635.585M594.722 668.447L612.993 621.018M594.722 668.447L626.283 635.587L612.993 621.018M594.722 668.446L626.283 635.585M626.283 635.585L612.993 621.017M626.283 635.585L631.506 579.924L612.993 621.017M612.993 621.018L609.977 558.039M612.993 621.018L631.505 579.925L609.977 558.039M609.978 558.036L631.506 579.923M609.978 558.036L624.01 516.214M609.978 558.036L596.543 488.419M631.506 579.923L624.01 516.214M631.506 579.923L647.265 538.32L624.01 516.214M624.01 516.214L596.543 488.419M624.01 516.216L596.543 488.42L611.448 449.905M624.01 516.216L611.448 449.905M624.01 516.216L647.265 538.322M624.01 516.216L639.079 476.772M611.448 449.905L581.487 418.93M611.448 449.905L601.451 386.389M611.448 449.905L639.079 476.772M611.448 449.905L630.013 415.296M596.543 488.421L568.515 457.343L581.487 418.931M596.543 488.421L581.487 418.931M596.543 488.421L611.448 449.906L581.487 418.931M581.487 418.93L601.451 386.389M601.451 386.389L573.58 356.318M601.451 386.389L601.656 331.089M601.451 386.389L630.013 415.296M601.451 386.389L626.561 357.965M581.487 418.929L553.788 387.847L573.58 356.317M581.487 418.929L573.58 356.317M581.487 418.929L601.451 386.388L573.58 356.317M573.58 356.318L601.656 331.089M601.656 331.089L626.561 357.965M647.265 538.322L639.079 476.772M647.265 538.322L660.495 497.346M639.079 476.772L660.495 497.346M639.079 476.772L654.455 439.278M639.079 476.772L630.013 415.296M660.495 497.346L654.455 439.278M660.495 497.346L670.679 456.396L654.455 439.278M654.455 439.278L630.013 415.296M654.455 439.278L650.586 382.622M654.455 439.278L668.696 401.554L650.586 382.622M630.013 415.296L650.586 382.622M630.013 415.296L626.561 357.965M650.586 382.622L626.561 357.965M650.586 382.621L626.562 357.964L654.218 330.132M650.586 382.621L654.218 330.132M650.586 382.621L668.696 401.553M650.586 382.621L670.781 348.139M654.218 330.132L670.781 348.139M670.679 456.394L654.455 439.276L668.696 401.553M670.679 456.394L668.696 401.553M670.679 456.394L678.635 413.348M668.696 401.553L678.635 413.348M668.696 401.553L681.393 359.951M668.696 401.553L670.781 348.139M678.635 413.348L681.393 359.951M681.393 359.951L670.781 348.139M476.224 421.648L476.49 412.517L456.997 448.866L476.224 421.648Z" stroke="white" stroke-width="0.25" stroke-linejoin="round"/>
</g>
<defs>
<filter id="filter0_f_196_3430" x="0.170898" y="0.881104" width="960.942" height="1244.46" filterUnits="userSpaceOnUse" color-interpolation-filters="sRGB">
<feFlood flood-opacity="0" result="BackgroundImageFix"/>
<feBlend mode="normal" in="SourceGraphic" in2="BackgroundImageFix" result="shape"/>
<feGaussianBlur stdDeviation="207.5" result="effect1_foregroundBlur_196_3430"/>
</filter>
<filter id="filter1_f_196_3430" x="0.170898" y="0.881104" width="960.942" height="1244.46" filterUnits="userSpaceOnUse" color-interpolation-filters="sRGB">
<feFlood flood-opacity="0" result="BackgroundImageFix"/>
<feBlend mode="normal" in="SourceGraphic" in2="BackgroundImageFix" result="shape"/>
<feGaussianBlur stdDeviation="207.5" result="effect1_foregroundBlur_196_3430"/>
</filter>
</defs>
</svg>
